<svg xmlns="http://www.w3.org/2000/svg" width="740.5" height="559.336" viewBox="0 0 740.5 559.336">
  <g id="组_1619" data-name="组 1619" transform="translate(-239.705 -184.987)">
    <path id="路径_3539" data-name="路径 3539" d="M427.6,419.159a62.311,62.311,0,0,0,5.907-102.4,233.226,233.226,0,0,1,25.679-30.411c4.493-4.489,9.055-8.724,13.67-12.777q2.765,2.332,5.409,4.839l15.339-9.374a16.652,16.652,0,0,1,22.892,5.523l15.194,24.865a16.651,16.651,0,0,1-5.523,22.892L510.831,331.7a120.08,120.08,0,0,1,4.915,35.445l17.335,4.839a16.651,16.651,0,0,1,11.564,20.513l-7.835,28.07A16.651,16.651,0,0,1,516.3,432.126l-17.319-4.832A119.787,119.787,0,0,1,482.5,449.107l9.374,15.339a16.655,16.655,0,0,1-5.523,22.892l-24.865,15.2a16.651,16.651,0,0,1-22.892-5.527l-9.374-15.335a119.887,119.887,0,0,1-27.283,4.7,190.919,190.919,0,0,1-6.85-58.12A62.047,62.047,0,0,0,427.6,419.159Z" transform="translate(434.943 228.617)" fill="#489aff"/>
    <g id="组_1578" data-name="组 1578" transform="translate(239.705 301.95)">
      <g id="组_1577" data-name="组 1577">
        <rect id="矩形_7" data-name="矩形 7" width="588.678" height="418.271" rx="6.928" transform="translate(17.04)" fill="#e3eaff"/>
        <rect id="矩形_8" data-name="矩形 8" width="573.187" height="407.265" rx="5.491" transform="translate(24.786 5.503)" fill="#6db8ff"/>
        <rect id="矩形_9" data-name="矩形 9" width="523.614" height="352.162" rx="3.383" transform="translate(49.572 24.669)" fill="#2f6dff"/>
        <path id="路径_3540" data-name="路径 3540" d="M242.45,320.08a21.832,21.832,0,0,0-2.745,10.458,22.075,22.075,0,0,0,22.075,22.075H840.388a22.076,22.076,0,0,0,22.079-22.075,21.833,21.833,0,0,0-2.749-10.458Z" transform="translate(-239.705 76.503)" fill="#e3eaff"/>
      </g>
      <path id="路径_3541" data-name="路径 3541" d="M240.427,325.582a21.989,21.989,0,0,0,19.33,11.617H838.365a21.989,21.989,0,0,0,19.33-11.617Z" transform="translate(-237.682 91.916)" fill="#c8d6f2"/>
    </g>
    <path id="路径_3542" data-name="路径 3542" d="M681.6,215.755H288.783V478.27a10.509,10.509,0,0,0,10.511,10.511H707.936V242.091A26.337,26.337,0,0,0,681.6,215.755Z" transform="translate(137.488 86.194)" fill="#424261" opacity="0.2"/>
    <rect id="矩形_10" data-name="矩形 10" width="459.844" height="291.672" rx="2.765" transform="translate(440.722 271.477)" fill="#e3eaff" opacity="0.21"/>
    <rect id="矩形_11" data-name="矩形 11" width="459.844" height="291.673" rx="2.765" transform="translate(459.116 251.769)" fill="#f9fbfc"/>
    <rect id="矩形_12" data-name="矩形 12" width="59.78" height="62.408" rx="1.728" transform="translate(320.999 388.409)" fill="#424261" opacity="0.2"/>
    <rect id="矩形_13" data-name="矩形 13" width="59.78" height="62.408" rx="1.728" transform="translate(317.549 479.064)" fill="#6db8ff"/>
    <rect id="矩形_14" data-name="矩形 14" width="59.78" height="62.407" rx="1.728" transform="translate(317.549 567.748)" fill="#6db8ff"/>
    <g id="组_1579" data-name="组 1579" transform="translate(332.001 577.868)">
      <path id="路径_3543" data-name="路径 3543" d="M292.482,302.548a14.21,14.21,0,0,0-28.419,0s-2,15.05,14.21,27.017C294.486,317.6,292.482,302.548,292.482,302.548Z" transform="translate(-263.984 -288.338)" fill="#9570ee"/>
      <path id="路径_3544" data-name="路径 3544" d="M276.164,309.921a10.294,10.294,0,1,1,9.424-9.424A10.3,10.3,0,0,1,276.164,309.921Z" transform="translate(-261.04 -285.451)" fill="#f9fbfc"/>
    </g>
    <g id="组_1586" data-name="组 1586" transform="translate(326.351 489.785)">
      <g id="组_1581" data-name="组 1581">
        <g id="组_1580" data-name="组 1580">
          <path id="路径_3545" data-name="路径 3545" d="M301.816,284.824a19.659,19.659,0,1,1-19.661-19.657A19.661,19.661,0,0,1,301.816,284.824Z" transform="translate(-262.498 -265.167)" fill="#9570ee"/>
          <path id="路径_3546" data-name="路径 3546" d="M295.207,282.02a15.854,15.854,0,1,1-15.856-15.852A15.856,15.856,0,0,1,295.207,282.02Z" transform="translate(-259.694 -262.363)" fill="#f9fbfc"/>
          <path id="路径_3547" data-name="路径 3547" d="M279.784,267.1a15.851,15.851,0,0,1,15.2,11.332.643.643,0,0,0,.612.46h0a.632.632,0,0,0,.608-.806,17.123,17.123,0,0,0-32.833,0,.632.632,0,0,0,.608.806h0a.643.643,0,0,0,.612-.46A15.85,15.85,0,0,1,279.784,267.1Z" transform="translate(-260.127 -263.298)" fill="#bb87ee"/>
          <path id="路径_3548" data-name="路径 3548" d="M299.622,270.471a1.894,1.894,0,0,0-1.882,1.627,15.849,15.849,0,0,1-31.411,0,1.894,1.894,0,0,0-1.882-1.627h0a1.9,1.9,0,0,0-1.889,2.14,19.655,19.655,0,0,0,38.953,0,1.9,1.9,0,0,0-1.889-2.14Z" transform="translate(-262.376 -250.308)" fill="#7f57ee"/>
          <path id="路径_3549" data-name="路径 3549" d="M295.207,282.02a15.854,15.854,0,1,1-15.856-15.852A15.856,15.856,0,0,1,295.207,282.02Z" transform="translate(-259.694 -262.363)" fill="#f9fbfc"/>
          <path id="路径_3550" data-name="路径 3550" d="M294.983,271.684a.639.639,0,0,0-.6.422,15.852,15.852,0,0,1-29.708,0,.639.639,0,0,0-.6-.422h0a.635.635,0,0,0-.6.855,17.129,17.129,0,0,0,32.1,0,.635.635,0,0,0-.6-.855Z" transform="translate(-259.869 -246.91)" fill="#9570ee"/>
        </g>
        <path id="路径_3551" data-name="路径 3551" d="M268.218,280.05h0a.762.762,0,0,1-.76-.76V268.129a.76.76,0,0,1,.76-.76h0a.761.761,0,0,1,.764.76V279.29A.763.763,0,0,1,268.218,280.05Z" transform="translate(-248.603 -258.998)" fill="#9570ee"/>
        <path id="路径_3552" data-name="路径 3552" d="M267.646,270.593h0a.76.76,0,0,1,1.072-.091l6.884,5.82a.76.76,0,0,1,.091,1.072h0a.764.764,0,0,1-1.072.091l-6.884-5.82A.76.76,0,0,1,267.646,270.593Z" transform="translate(-248.578 -250.723)" fill="#9570ee"/>
      </g>
      <g id="组_1582" data-name="组 1582" transform="translate(19.215 4.881)">
        <rect id="矩形_15" data-name="矩形 15" width="0.571" height="1.522" fill="#ced6ff"/>
        <rect id="矩形_16" data-name="矩形 16" width="0.571" height="1.522" transform="translate(0 27.776)" fill="#ced6ff"/>
      </g>
      <g id="组_1583" data-name="组 1583" transform="translate(4.852 19.245)">
        <rect id="矩形_17" data-name="矩形 17" width="0.571" height="1.522" transform="translate(0 0.571) rotate(-90)" fill="#ced6ff"/>
        <rect id="矩形_18" data-name="矩形 18" width="0.571" height="1.522" transform="translate(27.776 0.571) rotate(-90)" fill="#ced6ff"/>
      </g>
      <g id="组_1584" data-name="组 1584" transform="translate(8.941 8.97)">
        <rect id="矩形_19" data-name="矩形 19" width="0.571" height="1.522" transform="translate(0 0.403) rotate(-44.976)" fill="#ced6ff"/>
        <rect id="矩形_20" data-name="矩形 20" width="0.571" height="1.522" transform="translate(19.64 20.044) rotate(-45)" fill="#ced6ff"/>
      </g>
      <g id="组_1585" data-name="组 1585" transform="translate(8.941 8.97)">
        <rect id="矩形_21" data-name="矩形 21" width="0.571" height="1.522" transform="translate(0.404 21.121) rotate(-134.997)" fill="#ced6ff"/>
        <rect id="矩形_22" data-name="矩形 22" width="0.571" height="1.522" transform="matrix(-0.707, -0.707, 0.707, -0.707, 20.044, 1.48)" fill="#ced6ff"/>
      </g>
    </g>
    <g id="组_1593" data-name="组 1593" transform="translate(245.898 386.438)">
      <rect id="矩形_23" data-name="矩形 23" width="59.78" height="62.407" rx="1.728" transform="translate(71.652)" fill="#6db8ff"/>
      <g id="组_1592" data-name="组 1592" transform="translate(0 32.846)">
        <path id="路径_3553" data-name="路径 3553" d="M261.787,269.777l4.927-3.449,2.217-8.129-2.463-.493-1.478,2.956,1.478-14.042-2.464.493-2.463,13.549-2.956,6.405,2.71,1.724" transform="translate(-193.009 -246.621)" fill="#f7d3a9"/>
        <path id="路径_3554" data-name="路径 3554" d="M267.1,266.239l.657-5.912,7.226-7.226,1.642,2.3-2.628,2.956,13.8-3.284v2.956l-12.81,4.927-2.628,4.6Z" transform="translate(-169.166 -228.466)" fill="#f7d3a9"/>
        <g id="组_1591" data-name="组 1591" transform="translate(0 18.186)">
          <g id="组_1590" data-name="组 1590">
            <path id="路径_3555" data-name="路径 3555" d="M243.436,295.008l26.87,131.442,20.333-2.178-13.8-5.084,5.083-1.452-7.262-122.728Z" transform="translate(-235.447 -129.254)" fill="#544db8"/>
            <path id="路径_3556" data-name="路径 3556" d="M280.931,299.793s34.129,31.955,29.047,70.44c-5.809,30.5-18.156,42.12-18.156,42.12l-3.63-.726,5.626,14.886-16.339-17.426s20.151-27.777,7.626-56.645-39.759-39.216-39.759-39.216,23.421-21.242,25.055-20.695S280.931,299.793,280.931,299.793Z" transform="translate(-230.095 -136.218)" fill="#544db8"/>
            <g id="组_1589" data-name="组 1589">
              <path id="路径_3557" data-name="路径 3557" d="M306.692,251.4s-56.1,68.08-62.632,81.7c0,0-2.726,4.9-2.726,19.064s4.9,66.445,4.9,66.445l57.189,3.269s-18.521-63.723-19.064-65.358-9.8-11.439-18.517-13.617l47.929-86.6Z" transform="translate(-241.334 -251.405)" fill="#ff8b40"/>
              <g id="组_1588" data-name="组 1588" transform="translate(14.716 51.637)">
                <path id="路径_3558" data-name="路径 3558" d="M258.089,277.258s2.383,7.071,3.7,11.343c0,0-11.674-.247-15.784-5.672l4.356-10.439Z" transform="translate(-242.967 -243.971)" fill="#f7d3a9"/>
                <g id="组_1587" data-name="组 1587">
                  <path id="路径_3559" data-name="路径 3559" d="M269.2,276.182s3.452,20.106,0,24.675-15.289-3.2-20.224-10.511-5.915-23.763,2.467-25.131A15.5,15.5,0,0,1,269.2,276.182Z" transform="translate(-245.205 -264.988)" fill="#f7d3a9"/>
                </g>
              </g>
              <path id="路径_3560" data-name="路径 3560" d="M251.8,338.938s44.975-28.294,48.6-34.1,13.784-48.966,13.784-48.966l8.705,2.178s-5.079,48.24-6.527,53.319-45.7,52.232-55.858,52.232S246.723,350.544,251.8,338.938Z" transform="translate(-218.395 -238.888)" fill="#ff8b40"/>
            </g>
          </g>
          <path id="路径_3561" data-name="路径 3561" d="M248.507,270.125s5.915-8.211,16.426-6.238,13.138-.331,13.138-.331-2.3,11.5-9.526,14.126-9.2,1.969-9.2,1.969,3.942,3.942,4.927,6.9-3.284-3.611-4.927-1.312,0,7.227,3.284,6.9,1.312,2.3,0,4.927-3.284,5.915-5.257,4.927-8.869-4.927-11.5-13.138S242.6,272.755,248.507,270.125Z" transform="translate(-234.009 -217.365)" fill="#544db8"/>
        </g>
      </g>
    </g>
    <rect id="矩形_24" data-name="矩形 24" width="137.953" height="232.55" rx="1.296" transform="translate(487.363 282.316)" fill="#e3eaff"/>
    <rect id="矩形_25" data-name="矩形 25" width="89.341" height="19.707" rx="1.037" transform="translate(511.012 301.038)" fill="#6db8ff"/>
    <path id="路径_3562" data-name="路径 3562" d="M337.576,260.645H319.835a7.552,7.552,0,0,1-7.55-7.553h0a7.549,7.549,0,0,1,7.55-7.55h17.741a7.55,7.55,0,0,1,7.553,7.55h0A7.553,7.553,0,0,1,337.576,260.645Z" transform="translate(203.328 169.641)" fill="#6db8ff"/>
    <path id="路径_3563" data-name="路径 3563" d="M351.055,260.645H333.314a7.552,7.552,0,0,1-7.55-7.553h0a7.549,7.549,0,0,1,7.55-7.55h17.741a7.55,7.55,0,0,1,7.553,7.55h0A7.553,7.553,0,0,1,351.055,260.645Z" transform="translate(241.088 169.641)" fill="#9570ee"/>
    <rect id="矩形_26" data-name="矩形 26" width="95.91" height="15.109" transform="translate(509.042 340.454)" fill="#f9fbfc"/>
    <rect id="矩形_27" data-name="矩形 27" width="95.91" height="15.109" transform="translate(509.042 366.073)" fill="#f9fbfc"/>
    <rect id="矩形_28" data-name="矩形 28" width="55.181" height="3.449" transform="translate(529.735 390.708)" fill="#cdd4ff"/>
    <path id="路径_3564" data-name="路径 3564" d="M557.167,288.768H384.722a19.215,19.215,0,0,1-19.212-19.216h0a19.214,19.214,0,0,1,19.212-19.216H557.167a19.214,19.214,0,0,1,19.212,19.216h0A19.214,19.214,0,0,1,557.167,288.768Z" transform="translate(352.434 183.071)" fill="#9570ee"/>
    <g id="组_1594" data-name="组 1594" transform="translate(637.14 277.388)">
      <path id="路径_3565" data-name="路径 3565" d="M467.428,240.827H360.022a15.767,15.767,0,0,1-15.768-15.765h0a15.768,15.768,0,0,1,15.768-15.768H467.428a15.767,15.767,0,0,1,15.765,15.768h0A15.766,15.766,0,0,1,467.428,240.827Z" transform="translate(-344.254 -209.294)" fill="#e3eaff"/>
      <path id="路径_3566" data-name="路径 3566" d="M362.4,217.073a4.927,4.927,0,1,1-4.927-4.927A4.925,4.925,0,0,1,362.4,217.073Z" transform="translate(-321.016 -201.304)" fill="#ffc240"/>
      <path id="路径_3567" data-name="路径 3567" d="M371.3,217.073a4.927,4.927,0,1,1-4.927-4.927A4.928,4.928,0,0,1,371.3,217.073Z" transform="translate(-296.083 -201.304)" fill="#90c240"/>
      <path id="路径_3568" data-name="路径 3568" d="M379.51,217.073a4.927,4.927,0,1,1-4.927-4.927A4.925,4.925,0,0,1,379.51,217.073Z" transform="translate(-273.089 -201.304)" fill="#eb4f24"/>
    </g>
    <g id="组_1596" data-name="组 1596" transform="translate(328.696 402.166)">
      <circle id="椭圆_4" data-name="椭圆 4" cx="12.002" cy="12.002" r="12.002" transform="translate(6.056 7.312)" fill="#fff"/>
      <g id="组_1595" data-name="组 1595">
        <path id="路径_3569" data-name="路径 3569" d="M293.614,246.938H291.5l-3.037-4.28a1.288,1.288,0,0,0-1.045-.54H275.291a1.276,1.276,0,0,0-1.042.54l-3.037,4.28h-2.117a6,6,0,0,0-5.98,5.98v17.4a6,6,0,0,0,5.98,5.98h24.519a6,6,0,0,0,5.98-5.98v-17.4A6,6,0,0,0,293.614,246.938Zm-12.26,23.345a8.815,8.815,0,1,1,8.816-8.816A8.814,8.814,0,0,1,281.354,270.283Z" transform="translate(-263.115 -242.118)" fill="#9570ee"/>
        <circle id="椭圆_5" data-name="椭圆 5" cx="5.827" cy="5.827" r="5.827" transform="translate(12.413 13.524)" fill="#6db8ff"/>
      </g>
    </g>
    <g id="组_1597" data-name="组 1597" transform="translate(677.978 341.201)">
      <path id="矩形_29" data-name="矩形 29" d="M2.045,0H103.663a2.045,2.045,0,0,1,2.045,2.045V67.391a2.045,2.045,0,0,1-2.045,2.045H2.044A2.044,2.044,0,0,1,0,67.391V2.045A2.045,2.045,0,0,1,2.045,0Z" fill="#e3eaff"/>
      <path id="路径_3570" data-name="路径 3570" d="M401.152,255.848h-.205a2.757,2.757,0,0,1-1.349-.35L358.854,232.86a2.777,2.777,0,1,1,2.7-4.854l39.5,21.946,39.5-21.946a2.777,2.777,0,1,1,2.7,4.854L402.5,255.5A2.736,2.736,0,0,1,401.152,255.848Z" transform="translate(-348.197 -221.667)" fill="#fd4940"/>
    </g>
    <rect id="矩形_30" data-name="矩形 30" width="131.055" height="169.485" rx="1.814" transform="translate(807.612 234.033)" fill="#544db8"/>
    <g id="组_1598" data-name="组 1598" transform="translate(827.318 253.375)">
      <path id="路径_3571" data-name="路径 3571" d="M403.854,206.353h-8.732c-.464,0-.84-.757-.84-1.688h0c0-.931.376-1.688.84-1.688h8.732c.464,0,.84.756.84,1.688h0C404.694,205.6,404.318,206.353,403.854,206.353Z" transform="translate(-394.282 -202.977)" fill="#0cf"/>
      <path id="路径_3572" data-name="路径 3572" d="M448.448,206.353H398.5c-.464,0-.84-.757-.84-1.688h0c0-.931.376-1.688.84-1.688h49.947c.464,0,.84.756.84,1.688h0C449.288,205.6,448.912,206.353,448.448,206.353Z" transform="translate(-384.816 -202.977)" fill="#0cf"/>
      <path id="路径_3573" data-name="路径 3573" d="M414.433,208.189H398.5c-.464,0-.84-.756-.84-1.688h0c0-.935.376-1.688.84-1.688h15.932c.464,0,.84.753.84,1.688h0C415.273,207.432,414.9,208.189,414.433,208.189Z" transform="translate(-384.816 -197.834)" fill="#ff56a9"/>
      <path id="路径_3574" data-name="路径 3574" d="M426.51,208.189H403.545c-.464,0-.84-.756-.84-1.688h0c0-.935.376-1.688.84-1.688H426.51c.464,0,.84.753.84,1.688h0C427.35,207.432,426.973,208.189,426.51,208.189Z" transform="translate(-370.686 -197.834)" fill="#e3eaff"/>
      <path id="路径_3575" data-name="路径 3575" d="M448.448,217.127H398.5c-.464,0-.84-.757-.84-1.688h0c0-.931.376-1.688.84-1.688h49.947c.464,0,.84.756.84,1.688h0C449.288,216.37,448.912,217.127,448.448,217.127Z" transform="translate(-384.816 -172.794)" fill="#e3eaff"/>
      <path id="路径_3576" data-name="路径 3576" d="M403.854,218.963h-8.732c-.464,0-.84-.757-.84-1.688h0c0-.931.376-1.688.84-1.688h8.732c.464,0,.84.757.84,1.688h0C404.694,218.206,404.318,218.963,403.854,218.963Z" transform="translate(-394.282 -167.651)" fill="#0cf"/>
      <path id="路径_3577" data-name="路径 3577" d="M414.433,218.963H398.5c-.464,0-.84-.757-.84-1.688h0c0-.931.376-1.688.84-1.688h15.932c.464,0,.84.757.84,1.688h0C415.273,218.206,414.9,218.963,414.433,218.963Z" transform="translate(-384.816 -167.651)" fill="#e3eaff"/>
      <path id="路径_3578" data-name="路径 3578" d="M426.51,218.963H403.545c-.464,0-.84-.757-.84-1.688h0c0-.931.376-1.688.84-1.688H426.51c.464,0,.84.757.84,1.688h0C427.35,218.206,426.973,218.963,426.51,218.963Z" transform="translate(-370.686 -167.651)" fill="#ff56a9"/>
      <path id="路径_3579" data-name="路径 3579" d="M460.837,210.027H398.5c-.464,0-.84-.757-.84-1.688h0c0-.935.376-1.692.84-1.692h62.336c.464,0,.84.757.84,1.692h0C461.677,209.271,461.3,210.027,460.837,210.027Z" transform="translate(-384.816 -192.693)" fill="#ff56a9"/>
      <rect id="矩形_31" data-name="矩形 31" width="16.292" height="3.377" rx="0.234" transform="translate(47.553 20.935)" fill="#0cf"/>
      <path id="路径_3580" data-name="路径 3580" d="M419.207,211.863H398.5c-.464,0-.84-.757-.84-1.692h0c0-.931.376-1.688.84-1.688h20.706c.464,0,.84.757.84,1.688h0C420.048,211.107,419.671,211.863,419.207,211.863Z" transform="translate(-384.816 -187.55)" fill="#e3eaff"/>
      <path id="路径_3581" data-name="路径 3581" d="M412.9,211.863h-8.211c-.464,0-.84-.757-.84-1.692h0c0-.931.376-1.688.84-1.688H412.9c.464,0,.84.757.84,1.688h0C413.738,211.107,413.362,211.863,412.9,211.863Z" transform="translate(-367.486 -187.55)" fill="#0cf"/>
      <path id="路径_3582" data-name="路径 3582" d="M403.854,213.635h-8.732c-.464,0-.84-.757-.84-1.688h0c0-.931.376-1.688.84-1.688h8.732c.464,0,.84.756.84,1.688h0C404.694,212.878,404.318,213.635,403.854,213.635Z" transform="translate(-394.282 -182.577)" fill="#e3eaff"/>
      <path id="路径_3583" data-name="路径 3583" d="M460.837,213.635H398.5c-.464,0-.84-.757-.84-1.688h0c0-.931.376-1.688.84-1.688h62.336c.464,0,.84.756.84,1.688h0C461.677,212.878,461.3,213.635,460.837,213.635Z" transform="translate(-384.816 -182.577)" fill="#e3eaff"/>
      <path id="路径_3584" data-name="路径 3584" d="M403.854,220.663h-8.732c-.464,0-.84-.757-.84-1.688h0c0-.931.376-1.688.84-1.688h8.732c.464,0,.84.756.84,1.688h0C404.694,219.906,404.318,220.663,403.854,220.663Z" transform="translate(-394.282 -162.889)" fill="#e3eaff"/>
      <rect id="矩形_32" data-name="矩形 32" width="22.539" height="3.377" rx="0.275" transform="translate(47.553 54.398)" fill="#e3eaff"/>
      <path id="路径_3585" data-name="路径 3585" d="M419.207,220.663H398.5c-.464,0-.84-.757-.84-1.688h0c0-.931.376-1.688.84-1.688h20.706c.464,0,.84.756.84,1.688h0C420.048,219.906,419.671,220.663,419.207,220.663Z" transform="translate(-384.816 -162.889)" fill="#e3eaff"/>
      <path id="路径_3586" data-name="路径 3586" d="M412.9,220.663h-8.211c-.464,0-.84-.757-.84-1.688h0c0-.931.376-1.688.84-1.688H412.9c.464,0,.84.756.84,1.688h0C413.738,219.906,413.362,220.663,412.9,220.663Z" transform="translate(-367.486 -162.889)" fill="#e3eaff"/>
      <path id="路径_3587" data-name="路径 3587" d="M403.854,222.438h-8.732c-.464,0-.84-.757-.84-1.688h0c0-.935.376-1.688.84-1.688h8.732c.464,0,.84.753.84,1.688h0C404.694,221.681,404.318,222.438,403.854,222.438Z" transform="translate(-394.282 -157.916)" fill="#ffc359"/>
      <path id="路径_3588" data-name="路径 3588" d="M409.293,222.438H398.5c-.464,0-.84-.757-.84-1.688h0c0-.935.376-1.688.84-1.688h10.792c.464,0,.84.753.84,1.688h0C410.133,221.681,409.757,222.438,409.293,222.438Z" transform="translate(-384.816 -157.916)" fill="#0cf"/>
      <path id="路径_3589" data-name="路径 3589" d="M395.122,215.471c-.464,0-.84-.757-.84-1.688h0c0-.931.376-1.688.84-1.688h8.732c.464,0,.84.757.84,1.688h0c0,.931-.376,1.688-.84,1.688" transform="translate(-394.282 -177.434)" fill="#0cf"/>
      <rect id="矩形_33" data-name="矩形 33" width="25.468" height="3.377" rx="0.292" transform="translate(47.553 34.66)" fill="#e3eaff"/>
      <path id="路径_3590" data-name="路径 3590" d="M419.207,215.471H398.5c-.464,0-.84-.757-.84-1.688h0c0-.931.376-1.688.84-1.688h20.706c.464,0,.84.757.84,1.688h0C420.048,214.714,419.671,215.471,419.207,215.471Z" transform="translate(-384.816 -177.434)" fill="#ffc359"/>
      <path id="路径_3591" data-name="路径 3591" d="M412.9,215.471h-8.211c-.464,0-.84-.757-.84-1.688h0c0-.931.376-1.688.84-1.688H412.9c.464,0,.84.757.84,1.688h0C413.738,214.714,413.362,215.471,412.9,215.471Z" transform="translate(-367.486 -177.434)" fill="#ffc359"/>
      <path id="路径_3592" data-name="路径 3592" d="M448.448,224.325H398.5c-.464,0-.84-.757-.84-1.688h0c0-.931.376-1.688.84-1.688h49.947c.464,0,.84.756.84,1.688h0C449.288,223.568,448.912,224.325,448.448,224.325Z" transform="translate(-384.816 -152.63)" fill="#e3eaff"/>
      <path id="路径_3593" data-name="路径 3593" d="M414.433,226.161H398.5c-.464,0-.84-.757-.84-1.688h0c0-.931.376-1.688.84-1.688h15.932c.464,0,.84.756.84,1.688h0C415.273,225.4,414.9,226.161,414.433,226.161Z" transform="translate(-384.816 -147.486)" fill="#e3eaff"/>
      <path id="路径_3594" data-name="路径 3594" d="M426.51,226.161H403.545c-.464,0-.84-.757-.84-1.688h0c0-.931.376-1.688.84-1.688H426.51c.464,0,.84.756.84,1.688h0C427.35,225.4,426.973,226.161,426.51,226.161Z" transform="translate(-370.686 -147.486)" fill="#e3eaff"/>
      <path id="路径_3595" data-name="路径 3595" d="M448.448,235.1H398.5c-.464,0-.84-.753-.84-1.688h0c0-.931.376-1.688.84-1.688h49.947c.464,0,.84.757.84,1.688h0C449.288,234.346,448.912,235.1,448.448,235.1Z" transform="translate(-384.816 -122.447)" fill="#e3eaff"/>
      <path id="路径_3596" data-name="路径 3596" d="M403.854,236.935h-8.732c-.464,0-.84-.757-.84-1.688h0c0-.931.376-1.688.84-1.688h8.732c.464,0,.84.756.84,1.688h0C404.694,236.178,404.318,236.935,403.854,236.935Z" transform="translate(-394.282 -117.304)" fill="#ff56a9"/>
      <path id="路径_3597" data-name="路径 3597" d="M414.433,236.935H398.5c-.464,0-.84-.757-.84-1.688h0c0-.931.376-1.688.84-1.688h15.932c.464,0,.84.756.84,1.688h0C415.273,236.178,414.9,236.935,414.433,236.935Z" transform="translate(-384.816 -117.304)" fill="#0cf"/>
      <path id="路径_3598" data-name="路径 3598" d="M426.51,236.935H403.545c-.464,0-.84-.757-.84-1.688h0c0-.931.376-1.688.84-1.688H426.51c.464,0,.84.756.84,1.688h0C427.35,236.178,426.973,236.935,426.51,236.935Z" transform="translate(-370.686 -117.304)" fill="#e3eaff"/>
      <path id="路径_3599" data-name="路径 3599" d="M403.854,228h-8.732c-.464,0-.84-.757-.84-1.688h0c0-.935.376-1.688.84-1.688h8.732c.464,0,.84.753.84,1.688h0C404.694,227.24,404.318,228,403.854,228Z" transform="translate(-394.282 -142.343)" fill="#ff56a9"/>
      <rect id="矩形_34" data-name="矩形 34" width="46.446" height="3.377" rx="0.267" transform="translate(12.843 82.277)" fill="#ff56a9"/>
      <path id="路径_3600" data-name="路径 3600" d="M403.854,229.836h-8.732c-.464,0-.84-.757-.84-1.692h0c0-.931.376-1.688.84-1.688h8.732c.464,0,.84.757.84,1.688h0C404.694,229.079,404.318,229.836,403.854,229.836Z" transform="translate(-394.282 -137.202)" fill="#e3eaff"/>
      <path id="路径_3601" data-name="路径 3601" d="M419.207,229.836H398.5c-.464,0-.84-.757-.84-1.692h0c0-.931.376-1.688.84-1.688h20.706c.464,0,.84.757.84,1.688h0C420.048,229.079,419.671,229.836,419.207,229.836Z" transform="translate(-384.816 -137.202)" fill="#e3eaff"/>
      <path id="路径_3602" data-name="路径 3602" d="M412.9,229.836h-8.211c-.464,0-.84-.757-.84-1.692h0c0-.931.376-1.688.84-1.688H412.9c.464,0,.84.757.84,1.688h0C413.738,229.079,413.362,229.836,412.9,229.836Z" transform="translate(-367.486 -137.202)" fill="#e3eaff"/>
      <path id="路径_3603" data-name="路径 3603" d="M403.854,231.607h-8.732c-.464,0-.84-.753-.84-1.688h0c0-.931.376-1.688.84-1.688h8.732c.464,0,.84.756.84,1.688h0C404.694,230.854,404.318,231.607,403.854,231.607Z" transform="translate(-394.282 -132.23)" fill="#e3eaff"/>
      <path id="矩形_35" data-name="矩形 35" d="M.3,0H58.186a.3.3,0,0,1,.3.3V3.077a.3.3,0,0,1-.3.3H.3a.3.3,0,0,1-.3-.3V.3A.3.3,0,0,1,.3,0Z" transform="translate(12.843 96.001)" fill="#e3eaff"/>
      <path id="路径_3604" data-name="路径 3604" d="M403.854,238.635h-8.732c-.464,0-.84-.757-.84-1.688h0c0-.931.376-1.688.84-1.688h8.732c.464,0,.84.757.84,1.688h0C404.694,237.878,404.318,238.635,403.854,238.635Z" transform="translate(-394.282 -112.541)" fill="#e3eaff"/>
      <path id="路径_3605" data-name="路径 3605" d="M435.2,238.635H407.631c-.464,0-.84-.757-.84-1.688h0c0-.931.376-1.688.84-1.688H435.2c.464,0,.84.757.84,1.688h0C436.035,237.878,435.659,238.635,435.2,238.635Z" transform="translate(-359.239 -112.541)" fill="#e3eaff"/>
      <path id="路径_3606" data-name="路径 3606" d="M419.207,238.635H398.5c-.464,0-.84-.757-.84-1.688h0c0-.931.376-1.688.84-1.688h20.706c.464,0,.84.757.84,1.688h0C420.048,237.878,419.671,238.635,419.207,238.635Z" transform="translate(-384.816 -112.541)" fill="#e3eaff"/>
      <path id="路径_3607" data-name="路径 3607" d="M412.9,238.635h-8.211c-.464,0-.84-.757-.84-1.688h0c0-.931.376-1.688.84-1.688H412.9c.464,0,.84.757.84,1.688h0C413.738,237.878,413.362,238.635,412.9,238.635Z" transform="translate(-367.486 -112.541)" fill="#e3eaff"/>
      <rect id="矩形_36" data-name="矩形 36" width="38.636" height="3.377" rx="0.243" transform="translate(12.843 129.464)" fill="#ffc359"/>
      <rect id="矩形_37" data-name="矩形 37" width="26.965" height="3.377" rx="0.301" transform="translate(47.553 102.98)" fill="#ff56a9"/>
      <path id="路径_3608" data-name="路径 3608" d="M419.207,233.443H398.5c-.464,0-.84-.757-.84-1.688h0c0-.931.376-1.688.84-1.688h20.706c.464,0,.84.757.84,1.688h0C420.048,232.686,419.671,233.443,419.207,233.443Z" transform="translate(-384.816 -127.086)" fill="#ffc359"/>
      <path id="路径_3609" data-name="路径 3609" d="M412.9,233.443h-8.211c-.464,0-.84-.757-.84-1.688h0c0-.931.376-1.688.84-1.688H412.9c.464,0,.84.757.84,1.688h0C413.738,232.686,413.362,233.443,412.9,233.443Z" transform="translate(-367.486 -127.086)" fill="#ffc359"/>
    </g>
    <g id="组_1602" data-name="组 1602" transform="translate(900.509 209.942)">
      <circle id="椭圆_6" data-name="椭圆 6" cx="27.591" cy="27.591" r="27.591" fill="#ff4dd1"/>
      <g id="组_1601" data-name="组 1601" transform="translate(9.927 20.925)">
        <g id="组_1599" data-name="组 1599">
          <path id="路径_3610" data-name="路径 3610" d="M431.813,201.135l-10.959,4.014,10.959,3.98v4.117l-15.666-5.957v-4.28l15.666-5.953Z" transform="translate(-416.147 -197.056)" fill="#f9fbfc"/>
        </g>
        <g id="组_1600" data-name="组 1600" transform="translate(19.243)">
          <path id="路径_3611" data-name="路径 3611" d="M421.209,197.056l15.666,5.953v4.28l-15.666,5.957v-4.117l10.96-3.98-10.96-4.014Z" transform="translate(-421.209 -197.056)" fill="#f9fbfc"/>
        </g>
      </g>
    </g>
    <g id="组_1604" data-name="组 1604" transform="translate(704.031 661.188)">
      <circle id="椭圆_7" data-name="椭圆 7" cx="29.928" cy="29.928" r="29.928" transform="matrix(0.828, -0.561, 0.561, 0.828, 0, 33.596)" fill="#ffc240"/>
      <g id="组_1603" data-name="组 1603" transform="translate(25.765 25.747)">
        <path id="路径_3612" data-name="路径 3612" d="M400.233,331.136a14.108,14.108,0,0,1-.889,5.1,8.459,8.459,0,0,1-2.517,3.627,5.818,5.818,0,0,1-3.775,1.315,4.718,4.718,0,0,1-2.536-.684,3.936,3.936,0,0,1-1.585-1.809h-.312a6.629,6.629,0,0,1-5.322,2.494,7.109,7.109,0,0,1-5.4-2.06,7.8,7.8,0,0,1-1.977-5.641,8.717,8.717,0,0,1,2.6-6.58,9.347,9.347,0,0,1,6.774-2.5,23.437,23.437,0,0,1,3.665.319,19.77,19.77,0,0,1,3.3.768l-.445,9.462q0,2.691,1.471,2.691,1.237,0,1.973-1.809a12.755,12.755,0,0,0,.737-4.733,11.4,11.4,0,0,0-1.3-5.508,8.808,8.808,0,0,0-3.649-3.646,11.186,11.186,0,0,0-5.371-1.258,13.737,13.737,0,0,0-6.793,1.608,10.721,10.721,0,0,0-4.421,4.634,15.234,15.234,0,0,0-1.54,6.995q0,5.343,2.855,8.2t8.276,2.855a24.855,24.855,0,0,0,4.509-.452,29.946,29.946,0,0,0,4.839-1.327v3.718a23.343,23.343,0,0,1-9.2,1.76q-7.356,0-11.465-3.87t-4.113-10.762a18.048,18.048,0,0,1,2.1-8.682,15.24,15.24,0,0,1,5.98-6.113,17.686,17.686,0,0,1,8.933-2.216,16.209,16.209,0,0,1,7.607,1.741,12.348,12.348,0,0,1,5.166,4.953A14.8,14.8,0,0,1,400.233,331.136Zm-19.82,2.422q0,4.083,3.33,4.083a3.1,3.1,0,0,0,2.654-1.232,7.776,7.776,0,0,0,1.1-4l.251-4.277a10.685,10.685,0,0,0-2.228-.213,4.776,4.776,0,0,0-3.763,1.509A5.975,5.975,0,0,0,380.412,333.558Z" transform="translate(-368.628 -317.029)" fill="#fff"/>
      </g>
    </g>
    <g id="组_1605" data-name="组 1605" transform="translate(379.826 184.987)">
      <path id="路径_3613" data-name="路径 3613" d="M491.939,184.987H304.179a27.612,27.612,0,1,0,0,55.223h13.807l13.343,13.347,13.347-13.347H491.939a27.612,27.612,0,0,0,0-55.223Z" transform="translate(-276.565 -184.987)" fill="#9570ee"/>
      <path id="路径_3614" data-name="路径 3614" d="M412.415,199.118H288.865a3.091,3.091,0,0,1-3.091-3.091h0a3.09,3.09,0,0,1,3.091-3.087h123.55a3.089,3.089,0,0,1,3.087,3.087h0A3.09,3.09,0,0,1,412.415,199.118Z" transform="translate(-250.767 -162.704)" fill="#fff"/>
      <path id="路径_3615" data-name="路径 3615" d="M373.8,194.649H288.865a3.091,3.091,0,0,1-3.091-3.091h0a3.09,3.09,0,0,1,3.091-3.087H373.8a3.087,3.087,0,0,1,3.087,3.087h0A3.087,3.087,0,0,1,373.8,194.649Z" transform="translate(-250.767 -175.224)" fill="#fff"/>
    </g>
    <g id="组_1609" data-name="组 1609" transform="translate(799.45 465.791)">
      <path id="路径_3616" data-name="路径 3616" d="M403.361,280.413s-2.3,6.816-3.57,10.94c0,0,11.26-.239,15.221-5.47l-4.2-10.066Z" transform="translate(-350.98 -211.338)" fill="#f7d3a9"/>
      <g id="组_1606" data-name="组 1606" transform="translate(41.321 256.444)">
        <path id="路径_3617" data-name="路径 3617" d="M400.285,326.928l.962,4.289,6.215.35-1.313-5.252Z" transform="translate(-390.919 -326.315)" fill="#f79a74"/>
        <path id="路径_3618" data-name="路径 3618" d="M408.15,327.6s-10.416,5.429-10.328,5.778,17.593-1.486,17.593-1.486l-1.049-3.938Z" transform="translate(-397.821 -322.704)" fill="#544db8"/>
      </g>
      <g id="组_1607" data-name="组 1607" transform="translate(98.092 245.734)">
        <path id="路径_3619" data-name="路径 3619" d="M414.1,326.18l2.442,3.656,5.925-1.91-3.115-4.428Z" transform="translate(-408.981 -323.498)" fill="#f79a74"/>
        <path id="路径_3620" data-name="路径 3620" d="M420.316,326.574s-7.762,8.812-7.557,9.108,15.882-7.721,15.882-7.721l-2.4-3.3Z" transform="translate(-412.755 -320.236)" fill="#544db8"/>
      </g>
      <path id="路径_3621" data-name="路径 3621" d="M401.334,297.043s-17.859,58.3,10.5,114.5h8.405s-16.806-63.548,4.2-115.02Z" transform="translate(-362.202 -153.345)" fill="#ffc240"/>
      <path id="路径_3622" data-name="路径 3622" d="M401.324,303.285s2.764,60.91,48.358,104.315l7.918-2.825s-37.182-54.212-34.688-109.751Z" transform="translate(-346.686 -157.528)" fill="#ffc240"/>
      <g id="组_1608" data-name="组 1608">
        <path id="路径_3623" data-name="路径 3623" d="M406.03,267.366l.023-3.592a1.778,1.778,0,0,0-.061-.467l-.684-2.57-2.049.521-2.091-1.927a1.773,1.773,0,0,0-2.809.536,19.854,19.854,0,0,0-1.612,4.474,1.747,1.747,0,0,0,.452,1.471l3.193,3.5a1.778,1.778,0,0,0,1.817.506l2.547-.753A1.772,1.772,0,0,0,406.03,267.366Z" transform="translate(-359.573 -258.855)" fill="#f79a74"/>
        <path id="路径_3624" data-name="路径 3624" d="M435.376,339.611s-23.291-24.96-24.823-34.3-4.942-44.1-4.942-44.1L398.43,262.6s-2.467,49.711-.285,55.432,16.183,34.9,25.306,37.592S438.98,349.323,435.376,339.611Z" transform="translate(-358.116 -252.258)" fill="#ff4f72"/>
        <path id="路径_3625" data-name="路径 3625" d="M401,277.838s-5.257,17.479-1.927,21.885,15.578.414,20.334-6.637,5.71-22.911-2.376-24.234S402.9,270.787,401,277.838Z" transform="translate(-356.089 -231.659)" fill="#f79a74"/>
        <path id="路径_3626" data-name="路径 3626" d="M438.645,352.562s4.725-50.422,4.725-64.077c0-.623-.011-1.209-.023-1.8-3.512-8.876-12.237-8.705-15.734-8.006s-17.156,5.079-17.069,5.6l-.038-.049c-4.7,3.421-8.3,7.47-8.629,8.451,0,0-12.606,26.264-1.574,57.778Z" transform="translate(-362.221 -204.14)" fill="#ff4f72"/>
        <path id="路径_3627" data-name="路径 3627" d="M396.622,267.182l-.612-3.539a1.733,1.733,0,0,0-.141-.452l-1.125-2.41-1.924.874-2.4-1.532a1.776,1.776,0,0,0-2.672,1.023,19.859,19.859,0,0,0-.8,4.687,1.755,1.755,0,0,0,.7,1.372l3.756,2.878a1.78,1.78,0,0,0,1.878.182l2.376-1.19A1.775,1.775,0,0,0,396.622,267.182Z" transform="translate(-386.951 -256.094)" fill="#f79a74"/>
        <path id="路径_3628" data-name="路径 3628" d="M437.885,333.8s-27.313-20.482-30.465-29.412-12.606-42.546-12.606-42.546l-6.827,2.627s6.3,49.373,9.454,54.623S419.5,350.6,428.956,351.65,443.135,342.725,437.885,333.8Z" transform="translate(-384.046 -250.499)" fill="#ff4f72"/>
        <path id="路径_3629" data-name="路径 3629" d="M422.4,269.672s-14-5.949-20.661,6.3c-3.5,7.706,7.706.354,9.808,2.8s-2.8,7.356-1.4,9.1,3.851-3.151,5.254-.35-2.1,3.151-4.554,6.3,2.1,7.7-1.4,10.5-13.3,4.9-7.352,19.961-9.808,18.9-3.151,39.565,51.821,32.213,60.222,7.7-19.608-30.461-17.855-41.318,8.051-13.655-.35-24.508-13.659-17.16-11.207-24.162S425.549,269.672,422.4,269.672Z" transform="translate(-358.054 -232.597)" fill="#544db8"/>
      </g>
    </g>
    <path id="路径_3630" data-name="路径 3630" d="M436.115,246.338a30.109,30.109,0,1,0,30.107,30.107A30.109,30.109,0,0,0,436.115,246.338ZM420.89,274.1a3.682,3.682,0,1,1,3.68,3.684A3.683,3.683,0,0,1,420.89,274.1Zm15.225,18.775a9.576,9.576,0,0,1-9.485-8.276H445.6A9.576,9.576,0,0,1,436.115,292.879Zm11.541-15.092a3.682,3.682,0,1,1,3.68-3.684A3.681,3.681,0,0,1,447.656,277.787Z" transform="translate(465.875 171.87)" fill="#fec800"/>
    <path id="路径_3631" data-name="路径 3631" d="M297.571,366.915l-1.763-3.526,47.729-23.865,60.212.985,65.381-24.627h49.935l53.318-17.772.435.046,42.757,4.861,24.1-12.533,1.817,3.5L616.33,307.069l-.6-.065-42.922-4.881-53.422,17.7H469.493l-65.05,24.642-.377-.008-59.627-.978Z" transform="translate(157.17 295.55)" fill="#f9fbfc"/>
    <g id="组_1616" data-name="组 1616" transform="translate(595.754 382.496)">
      <path id="路径_3632" data-name="路径 3632" d="M342.353,294.109s47.3,76.61,41.386,129.9l32.191.669-13.8-7.994,3.942-.665s-11.826-82.6-22.995-111.918c-11.7-30.7-15.107-19.319-15.107-19.319Z" transform="translate(-308.193 -108.701)" fill="#544db8"/>
      <path id="路径_3633" data-name="路径 3633" d="M350.447,286.4s2.627,53.212-1.311,73.577-15.768,60.435-15.768,60.435l30.218.658-7.937-5.6-5.037-2.939s21.516-57.808,23.485-85.4,5.257-43.355,5.257-43.355Z" transform="translate(-333.367 -105.749)" fill="#544db8"/>
      <g id="组_1615" data-name="组 1615" transform="translate(10.135)">
        <path id="路径_3634" data-name="路径 3634" d="M356.486,260.1l4.927-3.449,2.217-8.129-2.463-.493-1.478,2.956,1.478-14.042-2.464.493-2.463,13.549-2.956,6.4,2.71,1.724" transform="translate(-287.707 -236.944)" fill="#f7d3a9"/>
        <path id="路径_3635" data-name="路径 3635" d="M361.794,256.562l.657-5.912,7.226-7.226,1.642,2.3-2.628,2.956,13.8-3.284v2.956l-12.81,4.927-2.628,4.6Z" transform="translate(-263.865 -218.789)" fill="#f7d3a9"/>
        <g id="组_1614" data-name="组 1614" transform="translate(0 18.184)">
          <g id="组_1613" data-name="组 1613">
            <g id="组_1612" data-name="组 1612">
              <path id="路径_3636" data-name="路径 3636" d="M401.391,241.727s-56.1,68.084-62.632,81.7c0,0-2.726,4.9-2.726,19.06s4.9,66.449,4.9,66.449l57.189,3.269s-18.521-63.727-19.064-65.358-9.8-11.439-18.517-13.617l47.928-86.6Z" transform="translate(-336.033 -241.727)" fill="#6db8ff"/>
              <g id="组_1611" data-name="组 1611" transform="translate(14.716 51.638)">
                <path id="路径_3637" data-name="路径 3637" d="M352.788,267.581s2.383,7.067,3.7,11.343c0,0-11.674-.247-15.784-5.672l4.356-10.439Z" transform="translate(-337.667 -234.291)" fill="#f7d3a9"/>
                <g id="组_1610" data-name="组 1610">
                  <path id="路径_3638" data-name="路径 3638" d="M363.9,266.5s3.452,20.11,0,24.679-15.289-3.2-20.22-10.511-5.919-23.763,2.463-25.135A15.507,15.507,0,0,1,363.9,266.5Z" transform="translate(-339.904 -255.311)" fill="#f7d3a9"/>
                </g>
              </g>
              <path id="路径_3639" data-name="路径 3639" d="M346.5,329.257s44.975-28.29,48.6-34.1,13.78-48.966,13.78-48.966l8.705,2.174s-5.079,48.244-6.527,53.323-45.7,52.228-55.858,52.228S341.422,340.867,346.5,329.257Z" transform="translate(-313.094 -229.207)" fill="#6db8ff"/>
            </g>
          </g>
        </g>
      </g>
      <path id="路径_3640" data-name="路径 3640" d="M363.13,267.992s2.3-7.884-2.627-11.826-13.465-3.284-14.78-1.969c0,2.3,5.254,3.611,3.942,4.927s-8.211,0-9.853,6.9.654,8.215.654,8.215-3.611,4.269.658,10.18,13.921,10.788,16.323,10.157,1.087-9.827,1.087-9.827-5.584-.658-5.915-4.273,2.631-3.942,3.942-2.627,1.642,4.269,2.631,3.611-.331-7.553-.331-7.553S362.477,270.946,363.13,267.992Z" transform="translate(-317.475 -191.46)" fill="#544db8"/>
    </g>
    <g id="组_1618" data-name="组 1618" transform="translate(621.23 659.647)">
      <path id="路径_3641" data-name="路径 3641" d="M386.722,310.472l-33.776,9.268a17.563,17.563,0,0,0-12.256,21.52l6.39,23.291a17.564,17.564,0,0,0,21.52,12.26l10.131-2.779,9.971,9.853,3.547-13.563,10.127-2.779a17.559,17.559,0,0,0,12.256-21.52l-6.387-23.3A17.569,17.569,0,0,0,386.722,310.472Z" transform="translate(-340.068 -309.851)" fill="#9570ee"/>
      <g id="组_1617" data-name="组 1617" transform="translate(16.692 26.606)">
        <path id="路径_3642" data-name="路径 3642" d="M352.072,322.156a3.875,3.875,0,1,1-4.763-2.71A3.875,3.875,0,0,1,352.072,322.156Z" transform="translate(-344.459 -309.966)" fill="#fff"/>
        <path id="路径_3643" data-name="路径 3643" d="M356.55,320.928a3.875,3.875,0,1,1-4.759-2.71A3.875,3.875,0,0,1,356.55,320.928Z" transform="translate(-331.915 -313.407)" fill="#fff"/>
        <path id="路径_3644" data-name="路径 3644" d="M361.028,319.7a3.875,3.875,0,1,1-4.759-2.714A3.873,3.873,0,0,1,361.028,319.7Z" transform="translate(-319.37 -316.849)" fill="#fff"/>
      </g>
    </g>
    <circle id="椭圆_8" data-name="椭圆 8" cx="6.241" cy="6.241" r="6.241" transform="translate(494.59 629.827)" fill="#ffc240"/>
    <circle id="椭圆_9" data-name="椭圆 9" cx="6.241" cy="6.241" r="6.241" transform="translate(723.854 589.755)" fill="#ff4f72"/>
  </g>
</svg>
