<svg xmlns="http://www.w3.org/2000/svg" width="490.52" height="344.234" viewBox="0 0 490.52 344.234">
  <g id="组_1998" data-name="组 1998" transform="translate(-50 -2240)">
    <g id="DESIGNED_BY_FREEPIK" data-name="DESIGNED BY FREEPIK" transform="translate(338.149 2239)">
      <g id="组_1996" data-name="组 1996">
        <rect id="矩形_115" data-name="矩形 115" width="60.371" height="14.209" rx="7.105" transform="translate(0 69)" fill="#15b5b1"/>
        <rect id="矩形_116" data-name="矩形 116" width="60.371" height="14.209" rx="7.105" transform="translate(71 69)" fill="#15b5b1"/>
        <rect id="矩形_117" data-name="矩形 117" width="60.371" height="14.209" rx="7.105" transform="translate(142 69)" fill="#15b5b1"/>
      </g>
    </g>
    <g id="组_1994" data-name="组 1994" transform="translate(50 2232)">
      <g id="OBJECTS" transform="translate(0 78.702)">
        <rect id="矩形_81" data-name="矩形 81" width="73.33" height="13.263" rx="6.631" transform="translate(222.203 260.269)" fill="#1ebfb8"/>
        <path id="路径_4582" data-name="路径 4582" d="M101.106,391.53H41.039a6.631,6.631,0,0,1-6.632-6.631h0a6.632,6.632,0,0,1,6.632-6.632h60.067a6.632,6.632,0,0,1,6.632,6.632h0A6.631,6.631,0,0,1,101.106,391.53Z" transform="translate(-34.407 -167.715)" fill="#1ebfb8"/>
        <rect id="矩形_82" data-name="矩形 82" width="37.951" height="13.263" rx="6.631" transform="translate(24.168 260.269)" fill="#1ebfb8"/>
        <rect id="矩形_83" data-name="矩形 83" width="22.291" height="13.263" rx="6.631" transform="translate(66.315 260.269)" fill="#1ebfb8"/>
        <rect id="矩形_84" data-name="矩形 84" width="196.586" height="25.506" rx="12.753" transform="translate(221.24 130.88)" fill="#1ebfb8"/>
        <path id="路径_4583" data-name="路径 4583" d="M413.027,352H375.193a6.631,6.631,0,0,1-6.631-6.631h0a6.631,6.631,0,0,1,6.631-6.632h37.834a6.631,6.631,0,0,1,6.631,6.632h0A6.631,6.631,0,0,1,413.027,352Z" transform="translate(-34.407 -167.715)" fill="#1ebfb8"/>
        <path id="路径_4584" data-name="路径 4584" d="M462.255,352H442.211a6.631,6.631,0,0,1-6.631-6.631h0a6.632,6.632,0,0,1,6.631-6.632h20.044a6.631,6.631,0,0,1,6.631,6.632h0A6.631,6.631,0,0,1,462.255,352Z" transform="translate(-34.407 -167.715)" fill="#1ebfb8"/>
        <path id="路径_4585" data-name="路径 4585" d="M462.125,423.657H402.058a6.631,6.631,0,0,1-6.632-6.631h0a6.631,6.631,0,0,1,6.632-6.631h60.067a6.631,6.631,0,0,1,6.632,6.631h0A6.631,6.631,0,0,1,462.125,423.657Z" transform="translate(-34.407 -167.715)" fill="#1ebfb8"/>
        <g id="组_1961" data-name="组 1961" transform="translate(244.528)">
          <path id="路径_4586" data-name="路径 4586" d="M385.1,187.012H330.232a15.3,15.3,0,0,0-15.3,15.3v74.835h34.946A19.919,19.919,0,0,0,369.8,257.227V202.31A15.3,15.3,0,0,1,385.1,187.012Z" transform="translate(-278.935 -167.715)" fill="#44eae2"/>
          <path id="路径_4587" data-name="路径 4587" d="M336.048,277.145H289.163a10.229,10.229,0,0,1-10.228-10.229v-99.2h20.328A21.487,21.487,0,0,1,320.75,189.2v72.645A15.3,15.3,0,0,0,336.048,277.145Z" transform="translate(-278.935 -167.715)" fill="#7ff6f0"/>
        </g>
        <g id="组_1987" data-name="组 1987" transform="translate(27.487 36.066)">
          <path id="矩形_85" data-name="矩形 85" d="M6.459,0H203.64A6.459,6.459,0,0,1,210.1,6.459V130.665a0,0,0,0,1,0,0H0a0,0,0,0,1,0,0V6.459A6.459,6.459,0,0,1,6.459,0Z" transform="translate(35.226)" fill="#0b4340"/>
          <path id="路径_4588" data-name="路径 4588" d="M341.96,413.409H62.379L97.12,334.446h210.1Z" transform="translate(-61.894 -203.781)" fill="#44eae2"/>
          <path id="路径_4589" data-name="路径 4589" d="M335.033,420.643H69.306c-5.583,0-8.667-3.279-6.927-7.234H341.96C343.7,417.364,340.616,420.643,335.033,420.643Z" transform="translate(-61.894 -203.781)" fill="#106361"/>
          <path id="路径_4590" data-name="路径 4590" d="M314.444,393.526H89.9l19.5-51.732H294.944Z" transform="translate(-61.894 -203.781)" fill="#7ff6f0"/>
          <g id="组_1986" data-name="组 1986" transform="translate(44.115 144.233)">
            <g id="组_1985" data-name="组 1985">
              <g id="组_1962" data-name="组 1962" transform="translate(9.606)">
                <path id="路径_4591" data-name="路径 4591" d="M115.614,356.006H129.68l2.226-7.993H118.272Z" transform="translate(-115.614 -348.013)" fill="#094140"/>
              </g>
              <g id="组_1963" data-name="组 1963" transform="translate(32.327)">
                <path id="路径_4592" data-name="路径 4592" d="M138.335,356.006H152.4l1.528-7.993H140.3Z" transform="translate(-138.335 -348.013)" fill="#094140"/>
              </g>
              <g id="组_1964" data-name="组 1964" transform="translate(55.048)">
                <path id="路径_4593" data-name="路径 4593" d="M161.056,356.006h14.065l.831-7.993H162.318Z" transform="translate(-161.056 -348.013)" fill="#094140"/>
              </g>
              <g id="组_1965" data-name="组 1965" transform="translate(77.768)">
                <path id="路径_4594" data-name="路径 4594" d="M197.975,348.013H184.341l-.565,7.993h14.065Z" transform="translate(-183.777 -348.013)" fill="#094140"/>
              </g>
              <g id="组_1966" data-name="组 1966" transform="translate(100.356)">
                <path id="路径_4595" data-name="路径 4595" d="M206.5,356.006h14.065L220,348.013H206.364Z" transform="translate(-206.364 -348.013)" fill="#094140"/>
              </g>
              <g id="组_1967" data-name="组 1967" transform="translate(122.379)">
                <path id="路径_4596" data-name="路径 4596" d="M229.218,356.006h14.065l-1.262-7.993H228.387Z" transform="translate(-228.387 -348.013)" fill="#094140"/>
              </g>
              <g id="组_1968" data-name="组 1968" transform="translate(144.402)">
                <path id="路径_4597" data-name="路径 4597" d="M251.939,356.006H266l-1.96-7.993H250.411Z" transform="translate(-250.411 -348.013)" fill="#094140"/>
              </g>
              <g id="组_1969" data-name="组 1969" transform="translate(166.425)">
                <path id="路径_4598" data-name="路径 4598" d="M272.433,348.013l2.226,7.993h14.065l-2.657-7.993Z" transform="translate(-272.433 -348.013)" fill="#094140"/>
              </g>
              <g id="组_1970" data-name="组 1970" transform="translate(5.056 12.839)">
                <path id="路径_4599" data-name="路径 4599" d="M111.064,369.693h14.805l2.462-8.841H114Z" transform="translate(-111.064 -360.852)" fill="#094140"/>
              </g>
              <g id="组_1971" data-name="组 1971" transform="translate(28.971 12.839)">
                <path id="路径_4600" data-name="路径 4600" d="M134.979,369.693h14.8l1.69-8.841H137.147Z" transform="translate(-134.979 -360.852)" fill="#094140"/>
              </g>
              <g id="组_1972" data-name="组 1972" transform="translate(52.886 12.839)">
                <path id="路径_4601" data-name="路径 4601" d="M158.894,369.693h14.8l.918-8.841H160.291Z" transform="translate(-158.894 -360.852)" fill="#094140"/>
              </g>
              <g id="组_1973" data-name="组 1973" transform="translate(76.801 12.839)">
                <path id="路径_4602" data-name="路径 4602" d="M197.761,360.852H183.434l-.625,8.841h14.8Z" transform="translate(-182.81 -360.852)" fill="#094140"/>
              </g>
              <g id="组_1974" data-name="组 1974" transform="translate(100.569 12.839)">
                <path id="路径_4603" data-name="路径 4603" d="M206.725,369.693h14.8l-.625-8.841H206.578Z" transform="translate(-206.578 -360.852)" fill="#094140"/>
              </g>
              <g id="组_1975" data-name="组 1975" transform="translate(123.713 12.839)">
                <path id="路径_4604" data-name="路径 4604" d="M230.64,369.693h14.8l-1.4-8.841H229.721Z" transform="translate(-229.721 -360.852)" fill="#094140"/>
              </g>
              <g id="组_1976" data-name="组 1976" transform="translate(146.857 12.839)">
                <path id="路径_4605" data-name="路径 4605" d="M254.555,369.693h14.8l-2.168-8.841H252.865Z" transform="translate(-252.865 -360.852)" fill="#094140"/>
              </g>
              <g id="组_1977" data-name="组 1977" transform="translate(170 12.839)">
                <path id="路径_4606" data-name="路径 4606" d="M278.47,369.693h14.8l-2.939-8.841H276.008Z" transform="translate(-276.008 -360.852)" fill="#094140"/>
              </g>
              <g id="组_1978" data-name="组 1978" transform="translate(0 27.053)">
                <path id="路径_4607" data-name="路径 4607" d="M106.008,384.9h15.627l2.738-9.832h-15.1Z" transform="translate(-106.008 -375.067)" fill="#094140"/>
              </g>
              <g id="组_1979" data-name="组 1979" transform="translate(25.243 27.053)">
                <path id="路径_4608" data-name="路径 4608" d="M131.251,384.9h15.626l1.88-9.832H133.662Z" transform="translate(-131.251 -375.067)" fill="#094140"/>
              </g>
              <g id="组_1980" data-name="组 1980" transform="translate(50.485 27.053)">
                <path id="路径_4609" data-name="路径 4609" d="M156.493,384.9h15.626l1.021-9.832h-15.1Z" transform="translate(-156.493 -375.067)" fill="#094140"/>
              </g>
              <g id="组_1981" data-name="组 1981" transform="translate(75.727 27.053)">
                <path id="路径_4610" data-name="路径 4610" d="M182.43,375.067l-.695,9.832H222.6l-.695-9.832H182.43Z" transform="translate(-181.735 -375.067)" fill="#094140"/>
              </g>
              <g id="组_1982" data-name="组 1982" transform="translate(125.19 27.053)">
                <path id="路径_4611" data-name="路径 4611" d="M232.22,384.9h15.626l-1.553-9.832H231.2Z" transform="translate(-231.198 -375.067)" fill="#094140"/>
              </g>
              <g id="组_1983" data-name="组 1983" transform="translate(149.574 27.053)">
                <path id="路径_4612" data-name="路径 4612" d="M257.462,384.9h15.626l-2.411-9.832H255.583Z" transform="translate(-255.583 -375.067)" fill="#094140"/>
              </g>
              <g id="组_1984" data-name="组 1984" transform="translate(173.958 27.053)">
                <path id="路径_4613" data-name="路径 4613" d="M282.7,384.9h15.627l-3.269-9.832h-15.1Z" transform="translate(-279.966 -375.067)" fill="#094140"/>
              </g>
            </g>
          </g>
          <path id="路径_4614" data-name="路径 4614" d="M241.5,420.643H162.843c-5.583,0-9.61-3.279-9.008-7.234H250.5C251.106,417.364,247.079,420.643,241.5,420.643Z" transform="translate(-61.894 -203.781)" fill="#094140"/>
          <rect id="矩形_86" data-name="矩形 86" width="188.864" height="109.43" transform="translate(45.844 10.618)" fill="#118983"/>
          <path id="路径_4615" data-name="路径 4615" d="M107.738,214.4H296.6L107.738,323.828Z" transform="translate(-61.894 -203.781)" fill="#f3f3f5" opacity="0.05"/>
        </g>
        <g id="组_1991" data-name="组 1991" transform="translate(165.18)">
          <path id="路径_4616" data-name="路径 4616" d="M298.763,167.715H214.884a15.3,15.3,0,0,0-15.3,15.3V323.828h83.878V183.012A15.3,15.3,0,0,1,298.763,167.715Z" transform="translate(-199.587 -167.715)" fill="#44eae2"/>
          <g id="组_1988" data-name="组 1988" transform="translate(10.993 27.924)">
            <rect id="矩形_87" data-name="矩形 87" width="10.651" height="4.39" fill="#1ea5c9"/>
            <rect id="矩形_88" data-name="矩形 88" width="19.217" height="4.39" transform="translate(16.536)" fill="#177e99"/>
            <rect id="矩形_89" data-name="矩形 89" width="39.915" height="4.39" transform="translate(7.316 9.329)" fill="#fff"/>
            <rect id="矩形_90" data-name="矩形 90" width="10.651" height="4.39" transform="translate(53.116 9.329)" fill="#1ea5c9"/>
            <rect id="矩形_91" data-name="矩形 91" width="39.915" height="4.39" transform="translate(7.316 18.658)" fill="#fff"/>
            <rect id="矩形_92" data-name="矩形 92" width="10.651" height="4.39" transform="translate(53.116 18.658)" fill="#1ea5c9"/>
            <rect id="矩形_93" data-name="矩形 93" width="39.915" height="4.39" transform="translate(7.316 27.987)" fill="#fff"/>
            <rect id="矩形_94" data-name="矩形 94" width="10.651" height="4.39" transform="translate(53.116 27.987)" fill="#1ea5c9"/>
          </g>
          <g id="组_1989" data-name="组 1989" transform="translate(10.993 69.59)">
            <rect id="矩形_95" data-name="矩形 95" width="10.651" height="4.39" fill="#1ea5c9"/>
            <rect id="矩形_96" data-name="矩形 96" width="19.217" height="4.39" transform="translate(16.536)" fill="#177e99"/>
            <rect id="矩形_97" data-name="矩形 97" width="39.915" height="4.39" transform="translate(7.316 9.329)" fill="#fff"/>
            <rect id="矩形_98" data-name="矩形 98" width="10.651" height="4.39" transform="translate(53.116 9.329)" fill="#1ea5c9"/>
            <rect id="矩形_99" data-name="矩形 99" width="39.915" height="4.39" transform="translate(7.316 18.658)" fill="#fff"/>
            <rect id="矩形_100" data-name="矩形 100" width="10.651" height="4.39" transform="translate(53.116 18.658)" fill="#1ea5c9"/>
            <rect id="矩形_101" data-name="矩形 101" width="39.915" height="4.39" transform="translate(7.316 27.987)" fill="#fff"/>
            <rect id="矩形_102" data-name="矩形 102" width="10.651" height="4.39" transform="translate(53.116 27.987)" fill="#1ea5c9"/>
          </g>
          <g id="组_1990" data-name="组 1990" transform="translate(10.993 111.256)">
            <rect id="矩形_103" data-name="矩形 103" width="10.651" height="4.39" fill="#1ea5c9"/>
            <rect id="矩形_104" data-name="矩形 104" width="19.217" height="4.39" transform="translate(16.536)" fill="#177e99"/>
            <rect id="矩形_105" data-name="矩形 105" width="39.915" height="4.39" transform="translate(7.316 9.329)" fill="#fff"/>
            <rect id="矩形_106" data-name="矩形 106" width="10.651" height="4.39" transform="translate(53.116 9.329)" fill="#1ea5c9"/>
            <rect id="矩形_107" data-name="矩形 107" width="39.915" height="4.39" transform="translate(7.316 18.658)" fill="#fff"/>
            <rect id="矩形_108" data-name="矩形 108" width="10.651" height="4.39" transform="translate(53.116 18.658)" fill="#1ea5c9"/>
            <rect id="矩形_109" data-name="矩形 109" width="39.915" height="4.39" transform="translate(7.316 27.987)" fill="#fff"/>
            <rect id="矩形_110" data-name="矩形 110" width="10.651" height="4.39" transform="translate(53.116 27.987)" fill="#1ea5c9"/>
          </g>
        </g>
      </g>
      <g id="DESIGNED_BY_FREEPIK-2" data-name="DESIGNED BY FREEPIK" transform="translate(285.755 8)">
        <g id="组_1993" data-name="组 1993">
          <rect id="矩形_112" data-name="矩形 112" width="60.371" height="60.371" rx="10.433" transform="translate(1.917 2.027)" fill="#158784"/>
          <rect id="矩形_113" data-name="矩形 113" width="60.371" height="60.371" rx="10.433" fill="#15b5b1"/>
          <rect id="矩形_114" data-name="矩形 114" width="49.368" height="37.667" rx="10.433" transform="translate(5.501 20.823)" fill="#13d6d6"/>
          <path id="路径_4618" data-name="路径 4618" d="M416.749,107.874l-3.778,6.724a.488.488,0,0,0,.426.727h2.676a.488.488,0,0,1,.451.675l-1.321,3.2a.488.488,0,0,0,.814.513l5.9-6.573a.488.488,0,0,0-.363-.814h-3.079a.488.488,0,0,1-.4-.763l2.161-3.171a.488.488,0,0,0-.4-.763h-2.652A.488.488,0,0,0,416.749,107.874Z" transform="translate(-386.55 -74.407)" fill="#ffef24"/>
        </g>
      </g>
      <g id="DESIGNED_BY_FREEPIK-3" data-name="DESIGNED BY FREEPIK" transform="translate(356.755 8)">
        <g id="组_1993-2" data-name="组 1993">
          <rect id="矩形_112-2" data-name="矩形 112" width="60.371" height="60.371" rx="10.433" transform="translate(1.917 2.027)" fill="#158784"/>
          <rect id="矩形_113-2" data-name="矩形 113" width="60.371" height="60.371" rx="10.433" fill="#15b5b1"/>
          <rect id="矩形_114-2" data-name="矩形 114" width="49.368" height="37.667" rx="10.433" transform="translate(5.501 20.823)" fill="#13d6d6"/>
          <path id="路径_4618-2" data-name="路径 4618" d="M416.749,107.874l-3.778,6.724a.488.488,0,0,0,.426.727h2.676a.488.488,0,0,1,.451.675l-1.321,3.2a.488.488,0,0,0,.814.513l5.9-6.573a.488.488,0,0,0-.363-.814h-3.079a.488.488,0,0,1-.4-.763l2.161-3.171a.488.488,0,0,0-.4-.763h-2.652A.488.488,0,0,0,416.749,107.874Z" transform="translate(-386.55 -74.407)" fill="#ffef24"/>
        </g>
      </g>
      <g id="DESIGNED_BY_FREEPIK-4" data-name="DESIGNED BY FREEPIK" transform="translate(427.755 8)">
        <g id="组_1993-3" data-name="组 1993">
          <rect id="矩形_112-3" data-name="矩形 112" width="60.371" height="60.371" rx="10.433" transform="translate(1.917 2.027)" fill="#158784"/>
          <rect id="矩形_113-3" data-name="矩形 113" width="60.371" height="60.371" rx="10.433" fill="#15b5b1"/>
          <rect id="矩形_114-3" data-name="矩形 114" width="49.368" height="37.667" rx="10.433" transform="translate(5.501 20.823)" fill="#13d6d6"/>
          <path id="路径_4618-3" data-name="路径 4618" d="M416.749,107.874l-3.778,6.724a.488.488,0,0,0,.426.727h2.676a.488.488,0,0,1,.451.675l-1.321,3.2a.488.488,0,0,0,.814.513l5.9-6.573a.488.488,0,0,0-.363-.814h-3.079a.488.488,0,0,1-.4-.763l2.161-3.171a.488.488,0,0,0-.4-.763h-2.652A.488.488,0,0,0,416.749,107.874Z" transform="translate(-386.55 -74.407)" fill="#ffef24"/>
        </g>
      </g>
    </g>
  </g>
</svg>
