<svg xmlns="http://www.w3.org/2000/svg" xmlns:xlink="http://www.w3.org/1999/xlink" width="642.735" height="492.537" viewBox="0 0 642.735 492.537">
  <defs>
    <linearGradient id="linear-gradient" y1="0.5" x2="1" y2="0.5" gradientUnits="objectBoundingBox">
      <stop offset="0" stop-color="#158f89"/>
      <stop offset="1" stop-color="#158f89"/>
      <stop offset="1"/>
    </linearGradient>
    <linearGradient id="linear-gradient-2" x1="0.5" y1="1" x2="0.5" gradientUnits="objectBoundingBox">
      <stop offset="0" stop-color="#1cbfb7"/>
      <stop offset="1" stop-color="#1cbfb7"/>
    </linearGradient>
    <linearGradient id="linear-gradient-3" x1="0.5" x2="0.5" y2="1" gradientUnits="objectBoundingBox">
      <stop offset="0" stop-color="#118983"/>
      <stop offset="1" stop-color="#118983"/>
      <stop offset="1"/>
    </linearGradient>
  </defs>
  <g id="组_1958" data-name="组 1958" transform="translate(-181.915 -186.59)">
    <g id="组_1957" data-name="组 1957" transform="translate(181.915 186.59)">
      <g id="组_1956" data-name="组 1956" transform="translate(0 0)">
        <g id="组_1888" data-name="组 1888" transform="translate(191.79 14.003)">
          <path id="路径_4522" data-name="路径 4522" d="M604.948,172.972H267.713a7.46,7.46,0,0,0-7.46,7.46V477.189H612.4V180.432A7.458,7.458,0,0,0,604.948,172.972Z" transform="translate(-252.463 -152.487)" fill="#10c4ba" opacity="0.4"/>
          <rect id="矩形_61" data-name="矩形 61" width="367.732" height="283.019" transform="translate(0 34.655)" fill="#fff"/>
          <path id="矩形_62" data-name="矩形 62" d="M3.057,0H364.675a3.057,3.057,0,0,1,3.057,3.057v31.6a0,0,0,0,1,0,0H0a0,0,0,0,1,0,0V3.057A3.057,3.057,0,0,1,3.057,0Z" fill="#0e7d78"/>
          <rect id="矩形_63" data-name="矩形 63" width="268.84" height="105.847" transform="translate(75.707 51.64)" fill="#3beefd"/>
          <g id="组_1884" data-name="组 1884" transform="translate(304.568 12.488)">
            <path id="路径_4523" data-name="路径 4523" d="M386.4,174.658a4.827,4.827,0,1,1-4.825-4.825A4.826,4.826,0,0,1,386.4,174.658Z" transform="translate(-376.743 -169.833)" fill="#3ff9ff"/>
            <path id="路径_4524" data-name="路径 4524" d="M393.041,174.658a4.827,4.827,0,1,1-4.825-4.825A4.826,4.826,0,0,1,393.041,174.658Z" transform="translate(-366.459 -169.833)" fill="#10c4ba"/>
            <path id="路径_4525" data-name="路径 4525" d="M399.686,174.658a4.827,4.827,0,1,1-4.828-4.825A4.826,4.826,0,0,1,399.686,174.658Z" transform="translate(-356.175 -169.833)" fill="url(#linear-gradient)"/>
          </g>
          <g id="组_1885" data-name="组 1885" transform="translate(21.55 51.64)">
            <circle id="椭圆_17" data-name="椭圆 17" cx="11.261" cy="11.261" r="11.261" fill="#38bab3"/>
            <circle id="椭圆_18" data-name="椭圆 18" cx="11.261" cy="11.261" r="11.261" transform="translate(0 31.014)" fill="#38bab3"/>
            <circle id="椭圆_19" data-name="椭圆 19" cx="11.261" cy="11.261" r="11.261" transform="translate(0 62.028)" fill="#38bab3"/>
          </g>
          <g id="组_1886" data-name="组 1886" transform="translate(98.117 70.216)">
            <path id="路径_4526" data-name="路径 4526" d="M364.615,196.344H297.634a1.926,1.926,0,0,1,0-3.852h66.981a1.926,1.926,0,0,1,0,3.852Z" transform="translate(-295.708 -192.492)" fill="#fff"/>
          </g>
          <g id="组_1887" data-name="组 1887" transform="translate(98.117 82.037)">
            <path id="路径_4527" data-name="路径 4527" d="M332.8,200.984H297.634a1.926,1.926,0,0,1,0-3.852H332.8a1.926,1.926,0,0,1,0,3.852Z" transform="translate(-295.708 -197.132)" fill="#38bab3"/>
          </g>
          <path id="路径_4528" data-name="路径 4528" d="M294.947,257.341c7.111-8.461,14.392-17.072,23.818-22.842s21.538-8.308,31.637-3.822c7.7,3.424,13.847,10.649,22.221,11.64,7.747.92,15.128-3.954,20.088-9.977,5.635-6.843,9.09-15.25,14.578-22.213s14.259-12.6,22.858-10.453c5.592,1.4,9.989,5.872,12.789,10.912s4.257,10.687,5.982,16.188c1.488,4.739,4.456,10.321,9.416,10.079s7.34-6.025,8.909-10.733a105.893,105.893,0,0,1,9.414-20.567c3.587-6.033,9.133-12.366,16.117-11.671,6.912.693,11.075,7.827,13.811,14.211a252.27,252.27,0,0,1,15.041,48.826Z" transform="translate(-198.768 -120.208)" fill="#10c4ba"/>
          <rect id="矩形_64" data-name="矩形 64" width="268.84" height="29.089" transform="translate(75.707 288.586)" fill="#3beefd"/>
        </g>
        <g id="组_1912" data-name="组 1912" transform="translate(0 185.185)">
          <g id="组_1892" data-name="组 1892" transform="translate(166.303 5.324)">
            <rect id="矩形_65" data-name="矩形 65" width="174.082" height="95.1" rx="2.964" transform="translate(3.822 3.822)" fill="#0079ff" opacity="0.4"/>
            <rect id="矩形_66" data-name="矩形 66" width="174.082" height="95.1" rx="2.964" fill="#fff"/>
            <g id="组_1889" data-name="组 1889" transform="translate(90.233 16.114)">
              <path id="路径_4529" data-name="路径 4529" d="M351.516,244.388H284.535a1.925,1.925,0,1,1,0-3.85h66.981a1.925,1.925,0,1,1,0,3.85Z" transform="translate(-282.609 -240.538)" fill="#3beefd"/>
            </g>
            <g id="组_1890" data-name="组 1890" transform="translate(90.233 26.501)">
              <path id="路径_4530" data-name="路径 4530" d="M351.516,248.467H284.535a1.926,1.926,0,0,1,0-3.852h66.981a1.926,1.926,0,0,1,0,3.852Z" transform="translate(-282.609 -244.615)" fill="#3beefd"/>
            </g>
            <g id="组_1891" data-name="组 1891" transform="translate(90.233 36.888)">
              <path id="路径_4531" data-name="路径 4531" d="M326.8,252.544H284.535a1.926,1.926,0,1,1,0-3.852H326.8a1.926,1.926,0,1,1,0,3.852Z" transform="translate(-282.609 -248.692)" fill="#17bbb2"/>
            </g>
            <rect id="矩形_67" data-name="矩形 67" width="10.759" height="65.012" transform="translate(16.092 16.696)" fill="#3beefd"/>
            <rect id="矩形_68" data-name="矩形 68" width="10.759" height="42.894" transform="translate(16.092 38.815)" fill="#1cbfb7"/>
            <rect id="矩形_69" data-name="矩形 69" width="10.759" height="65.012" transform="translate(33.575 16.696)" fill="#3beefd"/>
            <rect id="矩形_70" data-name="矩形 70" width="10.759" height="26.046" transform="translate(33.575 55.663)" fill="#118983"/>
            <rect id="矩形_71" data-name="矩形 71" width="10.759" height="65.012" transform="translate(51.058 16.696)" fill="#3beefd"/>
            <rect id="矩形_72" data-name="矩形 72" width="10.759" height="53.281" transform="translate(51.058 28.427)" fill="#1cbfb7"/>
            <rect id="矩形_73" data-name="矩形 73" width="10.759" height="65.012" transform="translate(68.54 16.696)" fill="#3beefd"/>
            <rect id="矩形_74" data-name="矩形 74" width="10.759" height="38.146" transform="translate(68.54 43.563)" fill="#118983"/>
            <path id="路径_4532" data-name="路径 4532" d="M296.032,267.647a6.334,6.334,0,1,1-6.334-6.334A6.333,6.333,0,0,1,296.032,267.647Z" transform="translate(-191.206 -192.271)" fill="#17bbb2"/>
            <path id="路径_4533" data-name="路径 4533" d="M303.63,267.647a6.333,6.333,0,1,1-6.334-6.334A6.333,6.333,0,0,1,303.63,267.647Z" transform="translate(-179.447 -192.271)" fill="#17bbb2"/>
            <path id="路径_4534" data-name="路径 4534" d="M311.228,267.647a6.333,6.333,0,1,1-6.333-6.334A6.333,6.333,0,0,1,311.228,267.647Z" transform="translate(-167.688 -192.271)" fill="#17bbb2"/>
          </g>
          <g id="组_1894" data-name="组 1894" transform="translate(0 236.528)" opacity="0.1">
            <g id="组_1893" data-name="组 1893">
              <path id="路径_4535" data-name="路径 4535" d="M351.378,330.042c0,2.8-37.935,5.075-84.73,5.075s-84.733-2.272-84.733-5.075,37.935-5.078,84.733-5.078S351.378,327.236,351.378,330.042Z" transform="translate(-181.915 -324.964)" fill="#200a50"/>
            </g>
          </g>
          <g id="组_1895" data-name="组 1895" transform="translate(16.305 61.203)">
            <path id="路径_4536" data-name="路径 4536" d="M291.949,256.146H254.358s-13.273,6.7-15.836,38.946C235.455,333.7,188.315,377.6,188.315,377.6l9.24,25.744s64.848-9.9,75.409-106.933c0,0,8.423,85.811,6.443,128.716H308.45S313.732,312.913,291.949,256.146Z" transform="translate(-188.315 -256.146)" fill="#118983"/>
          </g>
          <g id="组_1896" data-name="组 1896" transform="translate(80.655 25.558)">
            <path id="路径_4537" data-name="路径 4537" d="M215.267,277.8s-9.9-35.644,18.167-35.644c20.606,0,19.423,35.644,19.423,35.644Z" transform="translate(-213.573 -242.155)" fill="#3ff9ff"/>
          </g>
          <g id="组_1897" data-name="组 1897" transform="translate(88.153 29.514)">
            <path id="路径_4538" data-name="路径 4538" d="M223.356,244.167c13.485-5.539,35.2,41.262,72.051,18.127l3.809,2.059s-15.969,33.94-62.392,8.67C236.823,273.022,202.218,252.852,223.356,244.167Z" transform="translate(-216.516 -243.708)" fill="#3ff9ff"/>
          </g>
          <g id="组_1898" data-name="组 1898" transform="translate(113.918 230.184)">
            <path id="路径_4539" data-name="路径 4539" d="M242.231,322.474l12.481,10.7H226.63v-10.7Z" transform="translate(-226.63 -322.474)" fill="#3ff9ff"/>
          </g>
          <g id="组_1899" data-name="组 1899" transform="translate(8.61 187.697)">
            <path id="路径_4540" data-name="路径 4540" d="M200.685,320.456,194.9,335.844l-9.609-26.387,10.052-3.661Z" transform="translate(-185.295 -305.797)" fill="#3ff9ff"/>
          </g>
          <g id="组_1900" data-name="组 1900" transform="translate(97.738 24.335)">
            <path id="路径_4541" data-name="路径 4541" d="M223.615,244.923c8.846-9.057,41.147,29.061,62.729-3.248l3.674.869s-1.6,36.618-46.424,25.856C243.593,268.4,209.748,259.119,223.615,244.923Z" transform="translate(-220.279 -241.675)" fill="#3ff9ff"/>
          </g>
          <g id="组_1901" data-name="组 1901" transform="translate(112.505 38.051)">
            <path id="路径_4542" data-name="路径 4542" d="M255.85,263.028a.323.323,0,0,1-.071-.005c-.879-.094-21.62-2.5-29.6-14.985a.636.636,0,0,1,1.073-.685c7.656,11.969,28.46,14.382,28.671,14.407a.636.636,0,0,1-.069,1.269Z" transform="translate(-226.075 -247.059)" fill="#118983"/>
          </g>
          <g id="组_1902" data-name="组 1902" transform="translate(167.042 40.721)">
            <path id="路径_4543" data-name="路径 4543" d="M247.483,255.486s-.209-8.784,5.3-7.184-1.49,9.243-1.49,9.243" transform="translate(-247.482 -248.107)" fill="#ffd6b7"/>
          </g>
          <g id="组_1903" data-name="组 1903" transform="translate(84.583 5.595)">
            <path id="路径_4544" data-name="路径 4544" d="M231.117,234.319c-10.919-.043-14.4,8.249-16,20.234l27.219-2.907S243.753,234.365,231.117,234.319Z" transform="translate(-215.115 -234.319)" fill="#004aa2"/>
          </g>
          <g id="组_1904" data-name="组 1904" transform="translate(93.399 9.336)">
            <path id="路径_4545" data-name="路径 4545" d="M224.658,236.39a6.927,6.927,0,0,1,9.485,4.443c1.422,4.853,1.788,11.322-5.225,13.419C218.931,257.235,213.769,241.192,224.658,236.39Z" transform="translate(-218.576 -235.788)" fill="#ffd6b7"/>
          </g>
          <g id="组_1905" data-name="组 1905" transform="translate(93.026 8.031)">
            <path id="路径_4546" data-name="路径 4546" d="M218.429,244.772l17.25-1.985s-2.667-8.423-9.691-7.432S218.429,244.772,218.429,244.772Z" transform="translate(-218.429 -235.275)" fill="#004aa2"/>
          </g>
          <g id="组_1906" data-name="组 1906" transform="translate(89.125)">
            <path id="路径_4547" data-name="路径 4547" d="M225.445,236.4a4.274,4.274,0,1,1-4.272-4.275A4.275,4.275,0,0,1,225.445,236.4Z" transform="translate(-216.898 -232.123)" fill="#004aa2"/>
          </g>
          <g id="组_1907" data-name="组 1907" transform="translate(90.072 4.374)">
            <path id="路径_4548" data-name="路径 4548" d="M217.907,238.653a.638.638,0,0,1-.41-1.126c.181-.153,4.456-3.687,8.986-3.687a.637.637,0,0,1,0,1.274c-4.071,0-8.127,3.355-8.165,3.388A.642.642,0,0,1,217.907,238.653Z" transform="translate(-217.27 -233.84)" fill="#3ff9ff"/>
          </g>
          <g id="组_1908" data-name="组 1908" transform="translate(88.598 13.526)">
            <path id="路径_4549" data-name="路径 4549" d="M224.492,237.44S223.1,244,227.378,248.183l-10.687,1.065S217.537,237.083,224.492,237.44Z" transform="translate(-216.691 -237.432)" fill="#004aa2"/>
          </g>
          <g id="组_1909" data-name="组 1909" transform="translate(163.567 16.675)">
            <path id="路径_4550" data-name="路径 4550" d="M246.353,246.329s-1.768-8.624,4.377-7.572c4.9.841-.7,8.44-.7,8.44" transform="translate(-246.117 -238.668)" fill="#ffd6b7"/>
          </g>
          <g id="组_1910" data-name="组 1910" transform="translate(100.954 79.449)">
            <path id="路径_4551" data-name="路径 4551" d="M221.541,285.327s2.237-12.066,4.369-22.019l-2.754,39.919Z" transform="translate(-221.541 -263.308)" fill="#09433e"/>
          </g>
          <g id="组_1911" data-name="组 1911" transform="translate(87.29 31.618)">
            <path id="路径_4552" data-name="路径 4552" d="M250.106,278.258a.616.616,0,0,1-.2-.033c-13.126-4.387-21.589-11.317-29.133-18.035-3.085-2.749-4.632-5.646-4.593-8.609a9.93,9.93,0,0,1,3.281-6.9.637.637,0,0,1,.825.971,8.77,8.77,0,0,0-2.836,5.954c-.028,2.576,1.376,5.141,4.171,7.63,7.444,6.632,15.793,13.467,28.687,17.775a.638.638,0,0,1-.2,1.243Z" transform="translate(-216.178 -244.534)" fill="#118983"/>
          </g>
        </g>
        <g id="组_1940" data-name="组 1940" transform="translate(390.109 138.326)">
          <g id="组_1914" data-name="组 1914" transform="translate(65.408 342.994)" opacity="0.1">
            <g id="组_1913" data-name="组 1913">
              <ellipse id="椭圆_20" data-name="椭圆 20" cx="93.609" cy="5.608" rx="93.609" ry="5.608" fill="#200a50"/>
            </g>
          </g>
          <g id="组_1915" data-name="组 1915" transform="translate(89.404 336.783)">
            <path id="路径_4553" data-name="路径 4553" d="M383.919,345.923l-13.788,11.819h31.024V345.923Z" transform="translate(-370.131 -345.923)" fill="#3ff9ff"/>
          </g>
          <g id="组_1916" data-name="组 1916" transform="translate(208.385 316.227)">
            <path id="路径_4554" data-name="路径 4554" d="M419.32,356.614,433,368.553l-4.476-30.7-11.7,1.705Z" transform="translate(-416.833 -337.854)" fill="#3ff9ff"/>
          </g>
          <g id="组_1917" data-name="组 1917" transform="translate(89.851 114.877)">
            <path id="路径_4555" data-name="路径 4555" d="M429.169,312c.01-13.984-54.948-8.84-47.027-51.03l-3.572-2.153s-27.028,30.154,16.682,56.286C395.252,315.107,429.151,333.926,429.169,312Z" transform="translate(-370.307 -258.821)" fill="#118983"/>
          </g>
          <g id="组_1918" data-name="组 1918" transform="translate(98.219 106.625)">
            <path id="路径_4556" data-name="路径 4556" d="M373.591,263.793s.217-12.114,7.167-6.914c4.023,3.006-3.653,9.161-3.653,9.161Z" transform="translate(-373.591 -255.582)" fill="#ffd6b7"/>
          </g>
          <g id="组_1929" data-name="组 1929">
            <rect id="矩形_75" data-name="矩形 75" width="240.856" height="126.38" rx="3.064" transform="translate(0 3.822)" fill="#10c4ba" opacity="0.4"/>
            <rect id="矩形_76" data-name="矩形 76" width="240.856" height="126.38" rx="3.064" transform="translate(3.138)" fill="#fff"/>
            <g id="组_1923" data-name="组 1923" transform="translate(26.414 18.245)">
              <g id="组_1919" data-name="组 1919">
                <circle id="椭圆_21" data-name="椭圆 21" cx="19.497" cy="19.497" r="19.497" fill="#3beefd"/>
              </g>
              <g id="组_1920" data-name="组 1920" transform="translate(51.686 4.92)">
                <path id="路径_4557" data-name="路径 4557" d="M510.493,226.675H367.62a1.926,1.926,0,1,1,0-3.852H510.493a1.926,1.926,0,1,1,0,3.852Z" transform="translate(-365.694 -222.823)" fill="#3beefd"/>
              </g>
              <g id="组_1921" data-name="组 1921" transform="translate(51.686 18.15)">
                <path id="路径_4558" data-name="路径 4558" d="M510.493,231.866H367.62a1.925,1.925,0,1,1,0-3.85H510.493a1.925,1.925,0,1,1,0,3.85Z" transform="translate(-365.694 -228.016)" fill="#3beefd"/>
              </g>
              <g id="组_1922" data-name="组 1922" transform="translate(51.686 31.378)">
                <path id="路径_4559" data-name="路径 4559" d="M411.16,237.06H367.62a1.926,1.926,0,1,1,0-3.852h43.54a1.926,1.926,0,1,1,0,3.852Z" transform="translate(-365.694 -233.208)" fill="#17bbb2"/>
              </g>
            </g>
            <g id="组_1928" data-name="组 1928" transform="translate(20.457 63.334)">
              <g id="组_1924" data-name="组 1924" transform="translate(0 0)">
                <circle id="椭圆_22" data-name="椭圆 22" cx="19.497" cy="19.497" r="19.497" transform="translate(0 14.853) rotate(-22.39)" fill="#3beefd"/>
              </g>
              <g id="组_1925" data-name="组 1925" transform="translate(57.643 10.877)">
                <path id="路径_4560" data-name="路径 4560" d="M510.493,246.711H367.62a1.926,1.926,0,1,1,0-3.852H510.493a1.926,1.926,0,1,1,0,3.852Z" transform="translate(-365.694 -242.859)" fill="#3beefd"/>
              </g>
              <g id="组_1926" data-name="组 1926" transform="translate(57.643 24.107)">
                <path id="路径_4561" data-name="路径 4561" d="M510.493,251.9H367.62a1.926,1.926,0,1,1,0-3.852H510.493a1.926,1.926,0,1,1,0,3.852Z" transform="translate(-365.694 -248.052)" fill="#3beefd"/>
              </g>
              <g id="组_1927" data-name="组 1927" transform="translate(57.643 37.334)">
                <path id="路径_4562" data-name="路径 4562" d="M407.626,257.1H367.62a1.926,1.926,0,1,1,0-3.852h40.006a1.926,1.926,0,0,1,0,3.852Z" transform="translate(-365.694 -253.244)" fill="#17bbb2"/>
              </g>
            </g>
          </g>
          <g id="组_1930" data-name="组 1930" transform="translate(127.215 202.14)">
            <path id="路径_4563" data-name="路径 4563" d="M397.952,293.073s-24.694,58.479-5.959,92.221c24.9,44.831,78.275,49.221,78.275,49.221l-4.739-31.046s-47.01-26.475-40.319-63.292c6.667-36.676,3.72-47.1,3.72-47.1Z" transform="translate(-384.972 -293.073)" fill="#44eae2"/>
          </g>
          <g id="组_1931" data-name="组 1931" transform="translate(127.899 162.76)">
            <path id="路径_4564" data-name="路径 4564" d="M385.241,317s1.75-39.379,24.514-39.379c26.361,0,18.766,39.379,18.766,39.379Z" transform="translate(-385.241 -277.616)" fill="#118983"/>
          </g>
          <g id="组_1932" data-name="组 1932" transform="translate(150.396 120.561)">
            <path id="路径_4565" data-name="路径 4565" d="M394.236,307.066c1.839-13.862,55.633-1.485,53.369-44.352l3.827-1.661s22.8,33.466-23.989,53.583C427.442,314.635,391.349,328.8,394.236,307.066Z" transform="translate(-394.072 -261.052)" fill="#118983"/>
          </g>
          <g id="组_1933" data-name="组 1933" transform="translate(198.952 112.227)">
            <path id="路径_4566" data-name="路径 4566" d="M418.108,267.776s-9.931-6.94-1.737-9.806c4.739-1.659,5.564,8.145,5.564,8.145" transform="translate(-413.13 -257.781)" fill="#ffd6b7"/>
          </g>
          <g id="组_1934" data-name="组 1934" transform="translate(141.564 146.679)">
            <path id="路径_4567" data-name="路径 4567" d="M404.967,273.388a7.244,7.244,0,0,0-10.919.869c-3.172,4.227-5.905,10.428.191,15.054C402.924,295.9,413.863,282.086,404.967,273.388Z" transform="translate(-390.605 -271.304)" fill="#ffd6b7"/>
          </g>
          <g id="组_1935" data-name="组 1935" transform="translate(71.137 202.14)">
            <path id="路径_4568" data-name="路径 4568" d="M419.723,293.073s-67.5,34.676-55.284,78.917c11.2,40.566,21.839,55.957,21.839,55.957h32.995s-29.061-54.857-17.4-72.782c11.839-18.206,61.939-22.341,60.428-62.092Z" transform="translate(-362.961 -293.073)" fill="#44eae2"/>
          </g>
          <g id="组_1936" data-name="组 1936" transform="translate(142.347 139.759)">
            <path id="路径_4569" data-name="路径 4569" d="M391.941,270.464c-3.2,3.872,1.646,8.415,6.655,9.689s5.64,3.714,4.548,6.443c-1.31,3.258,2.874,5.979,6.025.448s3.437-11.653-3.518-15.126S394.6,267.251,391.941,270.464Z" transform="translate(-390.912 -268.588)" fill="#004aa2"/>
          </g>
          <g id="组_1937" data-name="组 1937" transform="translate(127.978 202.14)">
            <path id="路径_4570" data-name="路径 4570" d="M428.465,293.073s-2.51,16.04-10.67,24.259c-9.877,9.949-32.524,24.32-32.524,24.32s18.415-1.722,36.409-20.832c2.673-2.838,6.953-7.694,7.162-11.587C429.021,305.929,429.487,298.39,428.465,293.073Z" transform="translate(-385.272 -293.073)" fill="#09433e"/>
          </g>
          <g id="组_1938" data-name="组 1938" transform="translate(163.831 175.098)">
            <path id="路径_4571" data-name="路径 4571" d="M399.982,286.627a.637.637,0,0,1-.031-1.274,55.666,55.666,0,0,0,14.435-2.853.636.636,0,1,1,.443,1.192,56.063,56.063,0,0,1-14.82,2.935Z" transform="translate(-399.345 -282.459)" fill="#200a50"/>
          </g>
          <g id="组_1939" data-name="组 1939" transform="translate(130.589 172.845)">
            <path id="路径_4572" data-name="路径 4572" d="M386.934,293.463a.6.6,0,0,1-.115-.01.635.635,0,0,1-.512-.741,42.787,42.787,0,0,1,3.765-10.8.638.638,0,0,1,1.131.591,42.241,42.241,0,0,0-3.643,10.435A.64.64,0,0,1,386.934,293.463Z" transform="translate(-386.297 -281.575)" fill="#200a50"/>
          </g>
        </g>
        <rect id="矩形_77" data-name="矩形 77" width="77.309" height="77.309" rx="9.619" transform="translate(546.729 38.249)" fill="url(#linear-gradient-2)"/>
        <g id="组_1942" data-name="组 1942" transform="translate(271.55 307.385)">
          <circle id="椭圆_23" data-name="椭圆 23" cx="45.74" cy="45.74" r="45.74" transform="translate(0 33.671) rotate(-21.596)" fill="url(#linear-gradient-3)"/>
          <g id="组_1941" data-name="组 1941" transform="translate(31.671 31.647)">
            <path id="路径_4573" data-name="路径 4573" d="M338.879,333.874a7.986,7.986,0,0,1-4.193-1.1,5.854,5.854,0,0,1-2.573-3.557,12.613,12.613,0,0,1-4.316,3.557,11.41,11.41,0,0,1-4.9,1.073,8.743,8.743,0,0,1-3.781-.762A7.646,7.646,0,0,1,316.419,331a8.9,8.9,0,0,1-1.623-3.144,13.824,13.824,0,0,1-.535-3.951,16.522,16.522,0,0,1,.5-3.99,17.045,17.045,0,0,1,4.007-7.424,15.775,15.775,0,0,1,3.536-2.866,18.658,18.658,0,0,1,4.558-1.934,20.706,20.706,0,0,1,5.6-.708,21.716,21.716,0,0,1,4.555.415,19.858,19.858,0,0,1,3.661,1.174l-3.317,12.81a15.826,15.826,0,0,0-.55,3.694,4.994,4.994,0,0,0,.257,1.725,2.957,2.957,0,0,0,.693,1.108,2.3,2.3,0,0,0,1.052.568,5.634,5.634,0,0,0,1.345.155,4.686,4.686,0,0,0,2.746-.915,8.072,8.072,0,0,0,2.262-2.573A14.908,14.908,0,0,0,346.7,321.2a20.353,20.353,0,0,0,.571-4.971,20.766,20.766,0,0,0-1.4-7.908,15.692,15.692,0,0,0-3.9-5.714,16.31,16.31,0,0,0-5.992-3.452,24.093,24.093,0,0,0-7.63-1.159,20.642,20.642,0,0,0-8.4,1.709,20.922,20.922,0,0,0-6.736,4.68,21.454,21.454,0,0,0-4.453,7.009,23.353,23.353,0,0,0-1.605,8.7,26.162,26.162,0,0,0,1.76,9.961,19.63,19.63,0,0,0,12.068,11.516,27.108,27.108,0,0,0,8.993,1.45,39.488,39.488,0,0,0,4.973-.293,34.826,34.826,0,0,0,4.247-.792,28.748,28.748,0,0,0,3.521-1.141,21.44,21.44,0,0,0,2.83-1.363,2.575,2.575,0,0,1,1.174-.38,1.458,1.458,0,0,1,1.416,1.1l1.174,3.072a33.064,33.064,0,0,1-8.389,3.834,37.01,37.01,0,0,1-10.947,1.485,33.139,33.139,0,0,1-11.566-1.967,26.674,26.674,0,0,1-9.2-5.646,25.754,25.754,0,0,1-6.079-8.963,30.694,30.694,0,0,1-2.191-11.877,27.442,27.442,0,0,1,3.658-13.722,28.336,28.336,0,0,1,4.247-5.615,27.207,27.207,0,0,1,12.1-7.23,26.616,26.616,0,0,1,7.406-1.022,27.259,27.259,0,0,1,9.411,1.643,24.829,24.829,0,0,1,7.977,4.693,22.7,22.7,0,0,1,5.539,7.46,23.045,23.045,0,0,1,2.074,9.928,21.581,21.581,0,0,1-1.088,6.922,17.7,17.7,0,0,1-3.039,5.61,14.439,14.439,0,0,1-4.591,3.745A12.307,12.307,0,0,1,338.879,333.874Zm-14.3-5.521a6.29,6.29,0,0,0,1.814-.278,4.842,4.842,0,0,0,1.743-.983,7.3,7.3,0,0,0,1.518-1.883,11.2,11.2,0,0,0,1.139-2.935l2.522-9.737a12.391,12.391,0,0,0-2.278-.206,8.816,8.816,0,0,0-4.005.932,10.272,10.272,0,0,0-3.23,2.52,12.39,12.39,0,0,0-2.158,3.643,11.713,11.713,0,0,0-.795,4.262,5.493,5.493,0,0,0,.95,3.437A3.3,3.3,0,0,0,324.584,328.353Z" transform="translate(-300.934 -292.51)" fill="#f4f6ff"/>
          </g>
        </g>
        <g id="组_1950" data-name="组 1950" transform="translate(93.474)">
          <rect id="矩形_78" data-name="矩形 78" width="70.524" height="70.524" rx="8.775" fill="url(#linear-gradient-3)"/>
          <g id="组_1949" data-name="组 1949" transform="translate(12.622 12.33)">
            <g id="组_1943" data-name="组 1943" transform="translate(0 15.758)">
              <path id="路径_4574" data-name="路径 4574" d="M244.282,179.481H228.071a4.511,4.511,0,1,1,0-9.021h16.211a4.511,4.511,0,1,1,0,9.021Z" transform="translate(-223.559 -170.46)" fill="#f4f6ff"/>
            </g>
            <g id="组_1944" data-name="组 1944" transform="translate(0 23.167)">
              <path id="路径_4575" data-name="路径 4575" d="M244.282,182.389H228.071a4.511,4.511,0,1,1,0-9.021h16.211a4.511,4.511,0,1,1,0,9.021Z" transform="translate(-223.559 -173.368)" fill="#f4f6ff"/>
            </g>
            <g id="组_1945" data-name="组 1945" transform="translate(0 30.43)">
              <path id="路径_4576" data-name="路径 4576" d="M244.282,185.24H228.071a4.511,4.511,0,1,1,0-9.021h16.211a4.511,4.511,0,1,1,0,9.021Z" transform="translate(-223.559 -176.219)" fill="#f4f6ff"/>
            </g>
            <g id="组_1946" data-name="组 1946" transform="translate(12.844)">
              <path id="路径_4577" data-name="路径 4577" d="M243.643,189.339a4.484,4.484,0,0,1-.8-.071c-12.5-2.229-15.207-13.915-13.977-21.23a4.51,4.51,0,0,1,8.9,1.475c-.245,1.585-1.062,9.5,6.662,10.873a4.511,4.511,0,0,1-.787,8.953Z" transform="translate(-228.6 -164.275)" fill="#f4f6ff"/>
            </g>
            <g id="组_1947" data-name="组 1947" transform="translate(5.438 16.708)">
              <rect id="矩形_79" data-name="矩形 79" width="27.032" height="22.791" rx="1.968" fill="#f4f6ff"/>
            </g>
            <g id="组_1948" data-name="组 1948" transform="translate(25.865 12.861)">
              <path id="矩形_80" data-name="矩形 80" d="M1.552,0H15.27a1.552,1.552,0,0,1,1.552,1.552V26.937a1.553,1.553,0,0,1-1.553,1.553H1.552A1.552,1.552,0,0,1,0,26.937V1.552A1.552,1.552,0,0,1,1.552,0Z" fill="#48f7ea"/>
            </g>
          </g>
        </g>
        <path id="路径_4578" data-name="路径 4578" d="M418.705,219.855l17.857-11.391a8.215,8.215,0,0,0,0-13.849l-17.857-11.393a8.214,8.214,0,0,0-12.631,6.925v22.784A8.213,8.213,0,0,0,418.705,219.855Z" transform="translate(165.009 -124.636)" fill="#3ff9ff"/>
      </g>
    </g>
  </g>
</svg>
